<?xml version="1.0" encoding="utf-8" standalone="no"?>
<!DOCTYPE svg PUBLIC "-//W3C//DTD SVG 1.1//EN"
  "http://www.w3.org/Graphics/SVG/1.1/DTD/svg11.dtd">
<svg xmlns:xlink="http://www.w3.org/1999/xlink" width="720pt" height="720pt" viewBox="0 0 720 720" xmlns="http://www.w3.org/2000/svg" version="1.1">
 <metadata>
  <rdf:RDF xmlns:dc="http://purl.org/dc/elements/1.1/" xmlns:cc="http://creativecommons.org/ns#" xmlns:rdf="http://www.w3.org/1999/02/22-rdf-syntax-ns#">
   <cc:Work>
    <dc:type rdf:resource="http://purl.org/dc/dcmitype/StillImage"/>
    <dc:date>2025-07-30T18:05:13.061715</dc:date>
    <dc:format>image/svg+xml</dc:format>
    <dc:creator>
     <cc:Agent>
      <dc:title>Matplotlib v3.10.3, https://matplotlib.org/</dc:title>
     </cc:Agent>
    </dc:creator>
   </cc:Work>
  </rdf:RDF>
 </metadata>
 <defs>
  <style type="text/css">*{stroke-linejoin: round; stroke-linecap: butt}</style>
 </defs>
 <g id="figure_1">
  <g id="patch_1">
   <path d="M 0 720 
L 720 720 
L 720 0 
L 0 0 
z
" style="fill: #ffffff"/>
  </g>
  <g id="axes_1">
   <g id="patch_2">
    <path d="M 90 640.8 
L 648 640.8 
L 648 86.4 
L 90 86.4 
z
" style="fill: #ffffff"/>
   </g>
   <g id="matplotlib.axis_1">
    <g id="xtick_1">
     <g id="line2d_1">
      <path d="M 186.381818 640.8 
L 186.381818 86.4 
" clip-path="url(#pf2810a6266)" style="fill: none; stroke: #b0b0b0; stroke-opacity: 0.25; stroke-width: 0.75; stroke-linecap: square"/>
     </g>
     <g id="line2d_2">
      <defs>
       <path id="mcb52317d83" d="M 0 0 
L 0 3.5 
" style="stroke: #000000; stroke-width: 0.8"/>
      </defs>
      <g>
       <use xlink:href="#mcb52317d83" x="186.381818" y="640.8" style="stroke: #000000; stroke-width: 0.8"/>
      </g>
     </g>
     <g id="text_1">
      <!-- 0.4 -->
      <g transform="translate(168.377131 660.05625) scale(0.2 -0.2)">
       <defs>
        <path id="CourierNewPSMT-30" d="M 3125 2284 
L 3125 1634 
Q 3125 788 2722 294 
Q 2406 -94 1925 -94 
Q 1694 -94 1489 -1 
Q 1284 91 1141 256 
Q 1050 359 942 587 
Q 834 816 788 1006 
Q 716 1275 716 1634 
L 716 2284 
Q 716 3134 1119 3628 
Q 1434 4016 1916 4016 
Q 2150 4016 2353 3923 
Q 2556 3831 2700 3666 
Q 2794 3559 2900 3331 
Q 3006 3103 3056 2916 
Q 3125 2647 3125 2284 
z
M 2863 2250 
Q 2863 2622 2758 2942 
Q 2653 3263 2522 3453 
Q 2444 3563 2319 3641 
Q 2141 3750 1919 3750 
Q 1478 3750 1228 3300 
Q 978 2850 978 2250 
L 978 1672 
Q 978 1300 1083 978 
Q 1188 656 1322 466 
Q 1397 359 1522 281 
Q 1700 169 1925 169 
Q 2363 169 2613 620 
Q 2863 1072 2863 1672 
L 2863 2250 
z
" transform="scale(0.015625)"/>
        <path id="CourierNewPSMT-2e" d="M 1866 753 
L 1978 753 
Q 2153 753 2278 629 
Q 2403 506 2403 331 
Q 2403 150 2276 28 
Q 2150 -94 1978 -94 
L 1866 -94 
Q 1691 -94 1566 29 
Q 1441 153 1441 328 
Q 1441 509 1567 631 
Q 1694 753 1866 753 
z
" transform="scale(0.015625)"/>
        <path id="CourierNewPSMT-34" d="M 2409 1097 
L 669 1097 
L 669 1400 
L 2128 3922 
L 2675 3922 
L 2675 1359 
L 2894 1359 
Q 2991 1359 3031 1323 
Q 3072 1288 3072 1228 
Q 3072 1172 3031 1134 
Q 2991 1097 2894 1097 
L 2675 1097 
L 2675 263 
L 2894 263 
Q 2991 263 3031 227 
Q 3072 191 3072 131 
Q 3072 75 3031 37 
Q 2991 0 2894 0 
L 1919 0 
Q 1822 0 1781 37 
Q 1741 75 1741 131 
Q 1741 191 1781 227 
Q 1822 263 1919 263 
L 2409 263 
L 2409 1097 
z
M 2409 1359 
L 2409 3656 
L 2272 3656 
L 944 1359 
L 2409 1359 
z
" transform="scale(0.015625)"/>
       </defs>
       <use xlink:href="#CourierNewPSMT-30"/>
       <use xlink:href="#CourierNewPSMT-2e" transform="translate(60.009766 0)"/>
       <use xlink:href="#CourierNewPSMT-34" transform="translate(120.019531 0)"/>
      </g>
     </g>
    </g>
    <g id="xtick_2">
     <g id="line2d_3">
      <path d="M 287.836364 640.8 
L 287.836364 86.4 
" clip-path="url(#pf2810a6266)" style="fill: none; stroke: #b0b0b0; stroke-opacity: 0.25; stroke-width: 0.75; stroke-linecap: square"/>
     </g>
     <g id="line2d_4">
      <g>
       <use xlink:href="#mcb52317d83" x="287.836364" y="640.8" style="stroke: #000000; stroke-width: 0.8"/>
      </g>
     </g>
     <g id="text_2">
      <!-- 0.5 -->
      <g transform="translate(269.831676 660.05625) scale(0.2 -0.2)">
       <defs>
        <path id="CourierNewPSMT-35" d="M 1197 3656 
L 1197 2372 
Q 1428 2469 1640 2517 
Q 1853 2566 2044 2566 
Q 2538 2566 2870 2219 
Q 3203 1872 3203 1306 
Q 3203 681 2828 293 
Q 2453 -94 1891 -94 
Q 1519 -94 1175 72 
Q 931 188 731 359 
Q 613 463 613 531 
Q 613 588 650 627 
Q 688 666 738 666 
Q 791 666 850 609 
Q 1322 169 1878 169 
Q 2338 169 2638 483 
Q 2938 797 2938 1319 
Q 2938 1763 2678 2033 
Q 2419 2303 2019 2303 
Q 1609 2303 1200 2088 
Q 1100 2038 1059 2038 
Q 1003 2038 968 2075 
Q 934 2113 934 2181 
L 934 3922 
L 2766 3922 
Q 2859 3922 2900 3884 
Q 2941 3847 2941 3788 
Q 2941 3731 2900 3693 
Q 2859 3656 2766 3656 
L 1197 3656 
z
" transform="scale(0.015625)"/>
       </defs>
       <use xlink:href="#CourierNewPSMT-30"/>
       <use xlink:href="#CourierNewPSMT-2e" transform="translate(60.009766 0)"/>
       <use xlink:href="#CourierNewPSMT-35" transform="translate(120.019531 0)"/>
      </g>
     </g>
    </g>
    <g id="xtick_3">
     <g id="line2d_5">
      <path d="M 389.290909 640.8 
L 389.290909 86.4 
" clip-path="url(#pf2810a6266)" style="fill: none; stroke: #b0b0b0; stroke-opacity: 0.25; stroke-width: 0.75; stroke-linecap: square"/>
     </g>
     <g id="line2d_6">
      <g>
       <use xlink:href="#mcb52317d83" x="389.290909" y="640.8" style="stroke: #000000; stroke-width: 0.8"/>
      </g>
     </g>
     <g id="text_3">
      <!-- 0.6 -->
      <g transform="translate(371.286222 660.05625) scale(0.2 -0.2)">
       <defs>
        <path id="CourierNewPSMT-36" d="M 1138 1659 
Q 1381 2019 1639 2191 
Q 1897 2363 2213 2363 
Q 2631 2363 2956 2014 
Q 3281 1666 3281 1153 
Q 3281 684 2984 295 
Q 2688 -94 2166 -94 
Q 1825 -94 1529 115 
Q 1234 325 1066 759 
Q 856 1300 856 1956 
Q 856 2450 1053 2875 
Q 1203 3203 1453 3451 
Q 1703 3700 2036 3858 
Q 2369 4016 2756 4016 
Q 3019 4016 3194 3909 
Q 3269 3863 3269 3784 
Q 3269 3728 3234 3692 
Q 3200 3656 3147 3656 
Q 3106 3656 3050 3688 
Q 2922 3750 2731 3750 
Q 2122 3750 1620 3226 
Q 1119 2703 1119 1981 
Q 1119 1878 1138 1659 
z
M 1197 1225 
Q 1316 656 1570 412 
Q 1825 169 2172 169 
Q 2522 169 2770 442 
Q 3019 716 3019 1153 
Q 3019 1563 2769 1831 
Q 2519 2100 2203 2100 
Q 1900 2100 1619 1841 
Q 1431 1669 1197 1225 
z
" transform="scale(0.015625)"/>
       </defs>
       <use xlink:href="#CourierNewPSMT-30"/>
       <use xlink:href="#CourierNewPSMT-2e" transform="translate(60.009766 0)"/>
       <use xlink:href="#CourierNewPSMT-36" transform="translate(120.019531 0)"/>
      </g>
     </g>
    </g>
    <g id="xtick_4">
     <g id="line2d_7">
      <path d="M 490.745455 640.8 
L 490.745455 86.4 
" clip-path="url(#pf2810a6266)" style="fill: none; stroke: #b0b0b0; stroke-opacity: 0.25; stroke-width: 0.75; stroke-linecap: square"/>
     </g>
     <g id="line2d_8">
      <g>
       <use xlink:href="#mcb52317d83" x="490.745455" y="640.8" style="stroke: #000000; stroke-width: 0.8"/>
      </g>
     </g>
     <g id="text_4">
      <!-- 0.7 -->
      <g transform="translate(472.740767 660.05625) scale(0.2 -0.2)">
       <defs>
        <path id="CourierNewPSMT-37" d="M 2803 3538 
L 2803 3656 
L 922 3656 
L 922 3425 
Q 922 3331 886 3290 
Q 850 3250 791 3250 
Q 734 3250 696 3290 
Q 659 3331 659 3425 
L 659 3922 
L 3069 3922 
L 3069 3503 
L 2013 128 
Q 1988 47 1953 20 
Q 1919 -6 1875 -6 
Q 1819 -6 1781 31 
Q 1744 69 1744 119 
Q 1744 150 1763 206 
L 2803 3538 
z
" transform="scale(0.015625)"/>
       </defs>
       <use xlink:href="#CourierNewPSMT-30"/>
       <use xlink:href="#CourierNewPSMT-2e" transform="translate(60.009766 0)"/>
       <use xlink:href="#CourierNewPSMT-37" transform="translate(120.019531 0)"/>
      </g>
     </g>
    </g>
    <g id="xtick_5">
     <g id="line2d_9">
      <path d="M 592.2 640.8 
L 592.2 86.4 
" clip-path="url(#pf2810a6266)" style="fill: none; stroke: #b0b0b0; stroke-opacity: 0.25; stroke-width: 0.75; stroke-linecap: square"/>
     </g>
     <g id="line2d_10">
      <g>
       <use xlink:href="#mcb52317d83" x="592.2" y="640.8" style="stroke: #000000; stroke-width: 0.8"/>
      </g>
     </g>
     <g id="text_5">
      <!-- 0.8 -->
      <g transform="translate(574.195312 660.05625) scale(0.2 -0.2)">
       <defs>
        <path id="CourierNewPSMT-38" d="M 2459 2034 
Q 2788 1875 2955 1614 
Q 3122 1353 3122 1053 
Q 3122 588 2772 247 
Q 2422 -94 1922 -94 
Q 1422 -94 1072 247 
Q 722 588 722 1053 
Q 722 1350 889 1611 
Q 1056 1872 1388 2034 
Q 1100 2200 969 2378 
Q 788 2631 788 2938 
Q 788 3369 1120 3692 
Q 1453 4016 1922 4016 
Q 2394 4016 2725 3692 
Q 3056 3369 3056 2938 
Q 3056 2631 2875 2381 
Q 2747 2200 2459 2034 
z
M 2788 2928 
Q 2788 3266 2536 3508 
Q 2284 3750 1919 3750 
Q 1556 3750 1304 3506 
Q 1053 3263 1053 2931 
Q 1053 2625 1301 2395 
Q 1550 2166 1919 2166 
Q 2291 2166 2539 2395 
Q 2788 2625 2788 2928 
z
M 2859 1047 
Q 2859 1394 2590 1650 
Q 2322 1906 1922 1906 
Q 1522 1906 1253 1650 
Q 984 1394 984 1050 
Q 984 694 1254 431 
Q 1525 169 1922 169 
Q 2319 169 2589 431 
Q 2859 694 2859 1047 
z
" transform="scale(0.015625)"/>
       </defs>
       <use xlink:href="#CourierNewPSMT-30"/>
       <use xlink:href="#CourierNewPSMT-2e" transform="translate(60.009766 0)"/>
       <use xlink:href="#CourierNewPSMT-38" transform="translate(120.019531 0)"/>
      </g>
     </g>
    </g>
    <g id="xtick_6">
     <g id="line2d_11">
      <path d="M 105.218182 640.8 
L 105.218182 86.4 
" clip-path="url(#pf2810a6266)" style="fill: none; stroke: #b0b0b0; stroke-opacity: 0.15; stroke-width: 0.25; stroke-linecap: square"/>
     </g>
     <g id="line2d_12">
      <defs>
       <path id="mce05e3d11b" d="M 0 0 
L 0 2 
" style="stroke: #000000; stroke-width: 0.6"/>
      </defs>
      <g>
       <use xlink:href="#mce05e3d11b" x="105.218182" y="640.8" style="stroke: #000000; stroke-width: 0.6"/>
      </g>
     </g>
    </g>
    <g id="xtick_7">
     <g id="line2d_13">
      <path d="M 125.509091 640.8 
L 125.509091 86.4 
" clip-path="url(#pf2810a6266)" style="fill: none; stroke: #b0b0b0; stroke-opacity: 0.15; stroke-width: 0.25; stroke-linecap: square"/>
     </g>
     <g id="line2d_14">
      <g>
       <use xlink:href="#mce05e3d11b" x="125.509091" y="640.8" style="stroke: #000000; stroke-width: 0.6"/>
      </g>
     </g>
    </g>
    <g id="xtick_8">
     <g id="line2d_15">
      <path d="M 145.8 640.8 
L 145.8 86.4 
" clip-path="url(#pf2810a6266)" style="fill: none; stroke: #b0b0b0; stroke-opacity: 0.15; stroke-width: 0.25; stroke-linecap: square"/>
     </g>
     <g id="line2d_16">
      <g>
       <use xlink:href="#mce05e3d11b" x="145.8" y="640.8" style="stroke: #000000; stroke-width: 0.6"/>
      </g>
     </g>
    </g>
    <g id="xtick_9">
     <g id="line2d_17">
      <path d="M 166.090909 640.8 
L 166.090909 86.4 
" clip-path="url(#pf2810a6266)" style="fill: none; stroke: #b0b0b0; stroke-opacity: 0.15; stroke-width: 0.25; stroke-linecap: square"/>
     </g>
     <g id="line2d_18">
      <g>
       <use xlink:href="#mce05e3d11b" x="166.090909" y="640.8" style="stroke: #000000; stroke-width: 0.6"/>
      </g>
     </g>
    </g>
    <g id="xtick_10">
     <g id="line2d_19">
      <path d="M 206.672727 640.8 
L 206.672727 86.4 
" clip-path="url(#pf2810a6266)" style="fill: none; stroke: #b0b0b0; stroke-opacity: 0.15; stroke-width: 0.25; stroke-linecap: square"/>
     </g>
     <g id="line2d_20">
      <g>
       <use xlink:href="#mce05e3d11b" x="206.672727" y="640.8" style="stroke: #000000; stroke-width: 0.6"/>
      </g>
     </g>
    </g>
    <g id="xtick_11">
     <g id="line2d_21">
      <path d="M 226.963636 640.8 
L 226.963636 86.4 
" clip-path="url(#pf2810a6266)" style="fill: none; stroke: #b0b0b0; stroke-opacity: 0.15; stroke-width: 0.25; stroke-linecap: square"/>
     </g>
     <g id="line2d_22">
      <g>
       <use xlink:href="#mce05e3d11b" x="226.963636" y="640.8" style="stroke: #000000; stroke-width: 0.6"/>
      </g>
     </g>
    </g>
    <g id="xtick_12">
     <g id="line2d_23">
      <path d="M 247.254545 640.8 
L 247.254545 86.4 
" clip-path="url(#pf2810a6266)" style="fill: none; stroke: #b0b0b0; stroke-opacity: 0.15; stroke-width: 0.25; stroke-linecap: square"/>
     </g>
     <g id="line2d_24">
      <g>
       <use xlink:href="#mce05e3d11b" x="247.254545" y="640.8" style="stroke: #000000; stroke-width: 0.6"/>
      </g>
     </g>
    </g>
    <g id="xtick_13">
     <g id="line2d_25">
      <path d="M 267.545455 640.8 
L 267.545455 86.4 
" clip-path="url(#pf2810a6266)" style="fill: none; stroke: #b0b0b0; stroke-opacity: 0.15; stroke-width: 0.25; stroke-linecap: square"/>
     </g>
     <g id="line2d_26">
      <g>
       <use xlink:href="#mce05e3d11b" x="267.545455" y="640.8" style="stroke: #000000; stroke-width: 0.6"/>
      </g>
     </g>
    </g>
    <g id="xtick_14">
     <g id="line2d_27">
      <path d="M 308.127273 640.8 
L 308.127273 86.4 
" clip-path="url(#pf2810a6266)" style="fill: none; stroke: #b0b0b0; stroke-opacity: 0.15; stroke-width: 0.25; stroke-linecap: square"/>
     </g>
     <g id="line2d_28">
      <g>
       <use xlink:href="#mce05e3d11b" x="308.127273" y="640.8" style="stroke: #000000; stroke-width: 0.6"/>
      </g>
     </g>
    </g>
    <g id="xtick_15">
     <g id="line2d_29">
      <path d="M 328.418182 640.8 
L 328.418182 86.4 
" clip-path="url(#pf2810a6266)" style="fill: none; stroke: #b0b0b0; stroke-opacity: 0.15; stroke-width: 0.25; stroke-linecap: square"/>
     </g>
     <g id="line2d_30">
      <g>
       <use xlink:href="#mce05e3d11b" x="328.418182" y="640.8" style="stroke: #000000; stroke-width: 0.6"/>
      </g>
     </g>
    </g>
    <g id="xtick_16">
     <g id="line2d_31">
      <path d="M 348.709091 640.8 
L 348.709091 86.4 
" clip-path="url(#pf2810a6266)" style="fill: none; stroke: #b0b0b0; stroke-opacity: 0.15; stroke-width: 0.25; stroke-linecap: square"/>
     </g>
     <g id="line2d_32">
      <g>
       <use xlink:href="#mce05e3d11b" x="348.709091" y="640.8" style="stroke: #000000; stroke-width: 0.6"/>
      </g>
     </g>
    </g>
    <g id="xtick_17">
     <g id="line2d_33">
      <path d="M 369 640.8 
L 369 86.4 
" clip-path="url(#pf2810a6266)" style="fill: none; stroke: #b0b0b0; stroke-opacity: 0.15; stroke-width: 0.25; stroke-linecap: square"/>
     </g>
     <g id="line2d_34">
      <g>
       <use xlink:href="#mce05e3d11b" x="369" y="640.8" style="stroke: #000000; stroke-width: 0.6"/>
      </g>
     </g>
    </g>
    <g id="xtick_18">
     <g id="line2d_35">
      <path d="M 409.581818 640.8 
L 409.581818 86.4 
" clip-path="url(#pf2810a6266)" style="fill: none; stroke: #b0b0b0; stroke-opacity: 0.15; stroke-width: 0.25; stroke-linecap: square"/>
     </g>
     <g id="line2d_36">
      <g>
       <use xlink:href="#mce05e3d11b" x="409.581818" y="640.8" style="stroke: #000000; stroke-width: 0.6"/>
      </g>
     </g>
    </g>
    <g id="xtick_19">
     <g id="line2d_37">
      <path d="M 429.872727 640.8 
L 429.872727 86.4 
" clip-path="url(#pf2810a6266)" style="fill: none; stroke: #b0b0b0; stroke-opacity: 0.15; stroke-width: 0.25; stroke-linecap: square"/>
     </g>
     <g id="line2d_38">
      <g>
       <use xlink:href="#mce05e3d11b" x="429.872727" y="640.8" style="stroke: #000000; stroke-width: 0.6"/>
      </g>
     </g>
    </g>
    <g id="xtick_20">
     <g id="line2d_39">
      <path d="M 450.163636 640.8 
L 450.163636 86.4 
" clip-path="url(#pf2810a6266)" style="fill: none; stroke: #b0b0b0; stroke-opacity: 0.15; stroke-width: 0.25; stroke-linecap: square"/>
     </g>
     <g id="line2d_40">
      <g>
       <use xlink:href="#mce05e3d11b" x="450.163636" y="640.8" style="stroke: #000000; stroke-width: 0.6"/>
      </g>
     </g>
    </g>
    <g id="xtick_21">
     <g id="line2d_41">
      <path d="M 470.454545 640.8 
L 470.454545 86.4 
" clip-path="url(#pf2810a6266)" style="fill: none; stroke: #b0b0b0; stroke-opacity: 0.15; stroke-width: 0.25; stroke-linecap: square"/>
     </g>
     <g id="line2d_42">
      <g>
       <use xlink:href="#mce05e3d11b" x="470.454545" y="640.8" style="stroke: #000000; stroke-width: 0.6"/>
      </g>
     </g>
    </g>
    <g id="xtick_22">
     <g id="line2d_43">
      <path d="M 511.036364 640.8 
L 511.036364 86.4 
" clip-path="url(#pf2810a6266)" style="fill: none; stroke: #b0b0b0; stroke-opacity: 0.15; stroke-width: 0.25; stroke-linecap: square"/>
     </g>
     <g id="line2d_44">
      <g>
       <use xlink:href="#mce05e3d11b" x="511.036364" y="640.8" style="stroke: #000000; stroke-width: 0.6"/>
      </g>
     </g>
    </g>
    <g id="xtick_23">
     <g id="line2d_45">
      <path d="M 531.327273 640.8 
L 531.327273 86.4 
" clip-path="url(#pf2810a6266)" style="fill: none; stroke: #b0b0b0; stroke-opacity: 0.15; stroke-width: 0.25; stroke-linecap: square"/>
     </g>
     <g id="line2d_46">
      <g>
       <use xlink:href="#mce05e3d11b" x="531.327273" y="640.8" style="stroke: #000000; stroke-width: 0.6"/>
      </g>
     </g>
    </g>
    <g id="xtick_24">
     <g id="line2d_47">
      <path d="M 551.618182 640.8 
L 551.618182 86.4 
" clip-path="url(#pf2810a6266)" style="fill: none; stroke: #b0b0b0; stroke-opacity: 0.15; stroke-width: 0.25; stroke-linecap: square"/>
     </g>
     <g id="line2d_48">
      <g>
       <use xlink:href="#mce05e3d11b" x="551.618182" y="640.8" style="stroke: #000000; stroke-width: 0.6"/>
      </g>
     </g>
    </g>
    <g id="xtick_25">
     <g id="line2d_49">
      <path d="M 571.909091 640.8 
L 571.909091 86.4 
" clip-path="url(#pf2810a6266)" style="fill: none; stroke: #b0b0b0; stroke-opacity: 0.15; stroke-width: 0.25; stroke-linecap: square"/>
     </g>
     <g id="line2d_50">
      <g>
       <use xlink:href="#mce05e3d11b" x="571.909091" y="640.8" style="stroke: #000000; stroke-width: 0.6"/>
      </g>
     </g>
    </g>
    <g id="xtick_26">
     <g id="line2d_51">
      <path d="M 612.490909 640.8 
L 612.490909 86.4 
" clip-path="url(#pf2810a6266)" style="fill: none; stroke: #b0b0b0; stroke-opacity: 0.15; stroke-width: 0.25; stroke-linecap: square"/>
     </g>
     <g id="line2d_52">
      <g>
       <use xlink:href="#mce05e3d11b" x="612.490909" y="640.8" style="stroke: #000000; stroke-width: 0.6"/>
      </g>
     </g>
    </g>
    <g id="xtick_27">
     <g id="line2d_53">
      <path d="M 632.781818 640.8 
L 632.781818 86.4 
" clip-path="url(#pf2810a6266)" style="fill: none; stroke: #b0b0b0; stroke-opacity: 0.15; stroke-width: 0.25; stroke-linecap: square"/>
     </g>
     <g id="line2d_54">
      <g>
       <use xlink:href="#mce05e3d11b" x="632.781818" y="640.8" style="stroke: #000000; stroke-width: 0.6"/>
      </g>
     </g>
    </g>
    <g id="text_6">
     <!-- Actual Difficulty -->
     <g transform="translate(266.973437 680.490625) scale(0.2 -0.2)">
      <defs>
       <path id="CourierNewPSMT-41" d="M 2784 1222 
L 1059 1222 
L 706 263 
L 1209 263 
Q 1303 263 1343 227 
Q 1384 191 1384 131 
Q 1384 75 1343 37 
Q 1303 0 1209 0 
L 228 0 
Q 134 0 93 37 
Q 53 75 53 131 
Q 53 191 93 227 
Q 134 263 228 263 
L 431 263 
L 1591 3394 
L 816 3394 
Q 722 3394 681 3430 
Q 641 3466 641 3525 
Q 641 3584 681 3620 
Q 722 3656 816 3656 
L 2138 3656 
L 3419 263 
L 3622 263 
Q 3716 263 3756 227 
Q 3797 191 3797 131 
Q 3797 75 3756 37 
Q 3716 0 3622 0 
L 2644 0 
Q 2547 0 2506 37 
Q 2466 75 2466 131 
Q 2466 191 2506 227 
Q 2547 263 2644 263 
L 3144 263 
L 2784 1222 
z
M 2684 1484 
L 1959 3394 
L 1863 3394 
L 1159 1484 
L 2684 1484 
z
" transform="scale(0.015625)"/>
       <path id="CourierNewPSMT-63" d="M 3016 2441 
L 3016 2528 
Q 3016 2625 3053 2665 
Q 3091 2706 3147 2706 
Q 3206 2706 3243 2665 
Q 3281 2625 3281 2528 
L 3281 1934 
Q 3278 1838 3242 1797 
Q 3206 1756 3147 1756 
Q 3094 1756 3058 1792 
Q 3022 1828 3016 1913 
Q 2997 2134 2723 2334 
Q 2450 2534 1988 2534 
Q 1403 2534 1100 2168 
Q 797 1803 797 1331 
Q 797 822 1131 490 
Q 1466 159 1997 159 
Q 2303 159 2620 271 
Q 2938 384 3194 634 
Q 3259 697 3309 697 
Q 3363 697 3398 661 
Q 3434 625 3434 572 
Q 3434 438 3119 231 
Q 2609 -103 1984 -103 
Q 1350 -103 942 301 
Q 534 706 534 1328 
Q 534 1963 951 2381 
Q 1369 2800 2003 2800 
Q 2606 2800 3016 2441 
z
" transform="scale(0.015625)"/>
       <path id="CourierNewPSMT-74" d="M 1381 2706 
L 2806 2706 
Q 2900 2706 2940 2668 
Q 2981 2631 2981 2572 
Q 2981 2516 2940 2478 
Q 2900 2441 2806 2441 
L 1381 2441 
L 1381 694 
Q 1381 466 1564 312 
Q 1747 159 2100 159 
Q 2366 159 2675 239 
Q 2984 319 3156 419 
Q 3219 459 3259 459 
Q 3309 459 3346 420 
Q 3384 381 3384 328 
Q 3384 281 3344 241 
Q 3244 138 2858 17 
Q 2472 -103 2119 -103 
Q 1659 -103 1387 112 
Q 1116 328 1116 694 
L 1116 2441 
L 631 2441 
Q 538 2441 497 2478 
Q 456 2516 456 2575 
Q 456 2631 497 2668 
Q 538 2706 631 2706 
L 1116 2706 
L 1116 3481 
Q 1116 3575 1153 3615 
Q 1191 3656 1247 3656 
Q 1306 3656 1343 3615 
Q 1381 3575 1381 3481 
L 1381 2706 
z
" transform="scale(0.015625)"/>
       <path id="CourierNewPSMT-75" d="M 2819 0 
L 2819 384 
Q 2281 -103 1656 -103 
Q 1272 -103 1072 106 
Q 813 381 813 747 
L 813 2441 
L 459 2441 
Q 366 2441 325 2478 
Q 284 2516 284 2575 
Q 284 2631 325 2668 
Q 366 2706 459 2706 
L 1075 2706 
L 1075 747 
Q 1075 491 1237 325 
Q 1400 159 1644 159 
Q 2284 159 2819 747 
L 2819 2441 
L 2334 2441 
Q 2241 2441 2200 2478 
Q 2159 2516 2159 2575 
Q 2159 2631 2200 2668 
Q 2241 2706 2334 2706 
L 3081 2706 
L 3081 263 
L 3303 263 
Q 3397 263 3437 227 
Q 3478 191 3478 131 
Q 3478 75 3437 37 
Q 3397 0 3303 0 
L 2819 0 
z
" transform="scale(0.015625)"/>
       <path id="CourierNewPSMT-61" d="M 2675 0 
L 2675 378 
Q 2103 -103 1453 -103 
Q 981 -103 715 136 
Q 450 375 450 722 
Q 450 1103 800 1387 
Q 1150 1672 1822 1672 
Q 2003 1672 2215 1648 
Q 2428 1625 2675 1575 
L 2675 2000 
Q 2675 2216 2475 2375 
Q 2275 2534 1875 2534 
Q 1569 2534 1016 2356 
Q 916 2325 888 2325 
Q 838 2325 802 2362 
Q 766 2400 766 2456 
Q 766 2509 797 2541 
Q 841 2588 1150 2669 
Q 1638 2800 1888 2800 
Q 2384 2800 2662 2554 
Q 2941 2309 2941 2000 
L 2941 263 
L 3291 263 
Q 3388 263 3428 227 
Q 3469 191 3469 131 
Q 3469 75 3428 37 
Q 3388 0 3291 0 
L 2675 0 
z
M 2675 1306 
Q 2491 1359 2284 1384 
Q 2078 1409 1850 1409 
Q 1278 1409 956 1163 
Q 713 978 713 722 
Q 713 484 898 321 
Q 1084 159 1441 159 
Q 1781 159 2073 295 
Q 2366 431 2675 728 
L 2675 1306 
z
" transform="scale(0.015625)"/>
       <path id="CourierNewPSMT-6c" d="M 2053 3922 
L 2053 263 
L 3084 263 
Q 3181 263 3222 227 
Q 3263 191 3263 131 
Q 3263 75 3222 37 
Q 3181 0 3084 0 
L 759 0 
Q 666 0 625 37 
Q 584 75 584 131 
Q 584 191 625 227 
Q 666 263 759 263 
L 1791 263 
L 1791 3656 
L 1034 3656 
Q 941 3656 898 3693 
Q 856 3731 856 3791 
Q 856 3847 897 3884 
Q 938 3922 1034 3922 
L 2053 3922 
z
" transform="scale(0.015625)"/>
       <path id="CourierNewPSMT-20" transform="scale(0.015625)"/>
       <path id="CourierNewPSMT-44" d="M 891 263 
L 891 3394 
L 669 3394 
Q 575 3394 534 3430 
Q 494 3466 494 3525 
Q 494 3584 534 3620 
Q 575 3656 669 3656 
L 2081 3656 
Q 2413 3656 2686 3518 
Q 2959 3381 3103 3206 
Q 3350 2909 3478 2578 
Q 3569 2338 3569 2009 
L 3569 1647 
Q 3569 1244 3391 866 
Q 3213 488 2797 206 
Q 2488 0 2081 0 
L 669 0 
Q 575 0 534 37 
Q 494 75 494 131 
Q 494 191 534 227 
Q 575 263 669 263 
L 891 263 
z
M 1153 263 
L 2106 263 
Q 2438 263 2727 478 
Q 3016 694 3161 995 
Q 3306 1297 3306 1591 
L 3306 2066 
Q 3306 2309 3228 2500 
Q 3116 2778 2909 3028 
Q 2797 3166 2578 3280 
Q 2359 3394 2106 3394 
L 1153 3394 
L 1153 263 
z
" transform="scale(0.015625)"/>
       <path id="CourierNewPSMT-69" d="M 2050 4053 
L 2050 3375 
L 1663 3375 
L 1663 4053 
L 2050 4053 
z
M 2059 2706 
L 2059 263 
L 3091 263 
Q 3188 263 3228 227 
Q 3269 191 3269 131 
Q 3269 75 3228 37 
Q 3188 0 3091 0 
L 766 0 
Q 672 0 631 37 
Q 591 75 591 131 
Q 591 191 631 227 
Q 672 263 766 263 
L 1797 263 
L 1797 2441 
L 1031 2441 
Q 938 2441 895 2478 
Q 853 2516 853 2572 
Q 853 2631 893 2668 
Q 934 2706 1031 2706 
L 2059 2706 
z
" transform="scale(0.015625)"/>
       <path id="CourierNewPSMT-66" d="M 1747 2441 
L 1747 263 
L 2900 263 
Q 2994 263 3034 227 
Q 3075 191 3075 131 
Q 3075 75 3034 37 
Q 2994 0 2900 0 
L 847 0 
Q 753 0 712 37 
Q 672 75 672 131 
Q 672 191 712 227 
Q 753 263 847 263 
L 1481 263 
L 1481 2441 
L 913 2441 
Q 819 2441 778 2478 
Q 738 2516 738 2575 
Q 738 2631 778 2668 
Q 819 2706 913 2706 
L 1481 2706 
L 1481 3103 
Q 1481 3434 1750 3678 
Q 2019 3922 2463 3922 
Q 2834 3922 3256 3853 
Q 3416 3828 3448 3793 
Q 3481 3759 3481 3703 
Q 3481 3647 3443 3611 
Q 3406 3575 3344 3575 
Q 3319 3575 3259 3584 
Q 2788 3656 2463 3656 
Q 2119 3656 1933 3487 
Q 1747 3319 1747 3103 
L 1747 2706 
L 2975 2706 
Q 3069 2706 3109 2668 
Q 3150 2631 3150 2572 
Q 3150 2516 3109 2478 
Q 3069 2441 2975 2441 
L 1747 2441 
z
" transform="scale(0.015625)"/>
       <path id="CourierNewPSMT-79" d="M 1938 0 
L 719 2441 
L 641 2441 
Q 547 2441 506 2478 
Q 466 2516 466 2572 
Q 466 2613 486 2645 
Q 506 2678 539 2692 
Q 572 2706 641 2706 
L 1359 2706 
Q 1453 2706 1493 2668 
Q 1534 2631 1534 2572 
Q 1534 2516 1493 2478 
Q 1453 2441 1359 2441 
L 1006 2441 
L 2078 288 
L 3134 2441 
L 2781 2441 
Q 2688 2441 2647 2478 
Q 2606 2516 2606 2575 
Q 2606 2631 2647 2668 
Q 2688 2706 2781 2706 
L 3497 2706 
Q 3594 2706 3634 2668 
Q 3675 2631 3675 2572 
Q 3675 2531 3650 2497 
Q 3625 2463 3594 2452 
Q 3563 2441 3419 2441 
L 1756 -944 
L 2166 -944 
Q 2259 -944 2300 -980 
Q 2341 -1016 2341 -1075 
Q 2341 -1131 2300 -1168 
Q 2259 -1206 2166 -1206 
L 653 -1206 
Q 559 -1206 518 -1170 
Q 478 -1134 478 -1075 
Q 478 -1016 518 -980 
Q 559 -944 653 -944 
L 1475 -944 
L 1938 0 
z
" transform="scale(0.015625)"/>
      </defs>
      <use xlink:href="#CourierNewPSMT-41"/>
      <use xlink:href="#CourierNewPSMT-63" transform="translate(60.009766 0)"/>
      <use xlink:href="#CourierNewPSMT-74" transform="translate(120.019531 0)"/>
      <use xlink:href="#CourierNewPSMT-75" transform="translate(180.029297 0)"/>
      <use xlink:href="#CourierNewPSMT-61" transform="translate(240.039062 0)"/>
      <use xlink:href="#CourierNewPSMT-6c" transform="translate(300.048828 0)"/>
      <use xlink:href="#CourierNewPSMT-20" transform="translate(360.058594 0)"/>
      <use xlink:href="#CourierNewPSMT-44" transform="translate(420.068359 0)"/>
      <use xlink:href="#CourierNewPSMT-69" transform="translate(480.078125 0)"/>
      <use xlink:href="#CourierNewPSMT-66" transform="translate(540.087891 0)"/>
      <use xlink:href="#CourierNewPSMT-66" transform="translate(600.097656 0)"/>
      <use xlink:href="#CourierNewPSMT-69" transform="translate(660.107422 0)"/>
      <use xlink:href="#CourierNewPSMT-63" transform="translate(720.117188 0)"/>
      <use xlink:href="#CourierNewPSMT-75" transform="translate(780.126953 0)"/>
      <use xlink:href="#CourierNewPSMT-6c" transform="translate(840.136719 0)"/>
      <use xlink:href="#CourierNewPSMT-74" transform="translate(900.146484 0)"/>
      <use xlink:href="#CourierNewPSMT-79" transform="translate(960.15625 0)"/>
     </g>
    </g>
   </g>
   <g id="matplotlib.axis_2">
    <g id="ytick_1">
     <g id="line2d_55">
      <path d="M 90 546.218182 
L 648 546.218182 
" clip-path="url(#pf2810a6266)" style="fill: none; stroke: #b0b0b0; stroke-opacity: 0.25; stroke-width: 0.75; stroke-linecap: square"/>
     </g>
     <g id="line2d_56">
      <defs>
       <path id="m845680a55c" d="M 0 0 
L -3.5 0 
" style="stroke: #000000; stroke-width: 0.8"/>
      </defs>
      <g>
       <use xlink:href="#m845680a55c" x="90" y="546.218182" style="stroke: #000000; stroke-width: 0.8"/>
      </g>
     </g>
     <g id="text_7">
      <!-- 0.4 -->
      <g transform="translate(46.990625 552.346307) scale(0.2 -0.2)">
       <use xlink:href="#CourierNewPSMT-30"/>
       <use xlink:href="#CourierNewPSMT-2e" transform="translate(60.009766 0)"/>
       <use xlink:href="#CourierNewPSMT-34" transform="translate(120.019531 0)"/>
      </g>
     </g>
    </g>
    <g id="ytick_2">
     <g id="line2d_57">
      <path d="M 90 444.763636 
L 648 444.763636 
" clip-path="url(#pf2810a6266)" style="fill: none; stroke: #b0b0b0; stroke-opacity: 0.25; stroke-width: 0.75; stroke-linecap: square"/>
     </g>
     <g id="line2d_58">
      <g>
       <use xlink:href="#m845680a55c" x="90" y="444.763636" style="stroke: #000000; stroke-width: 0.8"/>
      </g>
     </g>
     <g id="text_8">
      <!-- 0.5 -->
      <g transform="translate(46.990625 450.891761) scale(0.2 -0.2)">
       <use xlink:href="#CourierNewPSMT-30"/>
       <use xlink:href="#CourierNewPSMT-2e" transform="translate(60.009766 0)"/>
       <use xlink:href="#CourierNewPSMT-35" transform="translate(120.019531 0)"/>
      </g>
     </g>
    </g>
    <g id="ytick_3">
     <g id="line2d_59">
      <path d="M 90 343.309091 
L 648 343.309091 
" clip-path="url(#pf2810a6266)" style="fill: none; stroke: #b0b0b0; stroke-opacity: 0.25; stroke-width: 0.75; stroke-linecap: square"/>
     </g>
     <g id="line2d_60">
      <g>
       <use xlink:href="#m845680a55c" x="90" y="343.309091" style="stroke: #000000; stroke-width: 0.8"/>
      </g>
     </g>
     <g id="text_9">
      <!-- 0.6 -->
      <g transform="translate(46.990625 349.437216) scale(0.2 -0.2)">
       <use xlink:href="#CourierNewPSMT-30"/>
       <use xlink:href="#CourierNewPSMT-2e" transform="translate(60.009766 0)"/>
       <use xlink:href="#CourierNewPSMT-36" transform="translate(120.019531 0)"/>
      </g>
     </g>
    </g>
    <g id="ytick_4">
     <g id="line2d_61">
      <path d="M 90 241.854545 
L 648 241.854545 
" clip-path="url(#pf2810a6266)" style="fill: none; stroke: #b0b0b0; stroke-opacity: 0.25; stroke-width: 0.75; stroke-linecap: square"/>
     </g>
     <g id="line2d_62">
      <g>
       <use xlink:href="#m845680a55c" x="90" y="241.854545" style="stroke: #000000; stroke-width: 0.8"/>
      </g>
     </g>
     <g id="text_10">
      <!-- 0.7 -->
      <g transform="translate(46.990625 247.98267) scale(0.2 -0.2)">
       <use xlink:href="#CourierNewPSMT-30"/>
       <use xlink:href="#CourierNewPSMT-2e" transform="translate(60.009766 0)"/>
       <use xlink:href="#CourierNewPSMT-37" transform="translate(120.019531 0)"/>
      </g>
     </g>
    </g>
    <g id="ytick_5">
     <g id="line2d_63">
      <path d="M 90 140.4 
L 648 140.4 
" clip-path="url(#pf2810a6266)" style="fill: none; stroke: #b0b0b0; stroke-opacity: 0.25; stroke-width: 0.75; stroke-linecap: square"/>
     </g>
     <g id="line2d_64">
      <g>
       <use xlink:href="#m845680a55c" x="90" y="140.4" style="stroke: #000000; stroke-width: 0.8"/>
      </g>
     </g>
     <g id="text_11">
      <!-- 0.8 -->
      <g transform="translate(46.990625 146.528125) scale(0.2 -0.2)">
       <use xlink:href="#CourierNewPSMT-30"/>
       <use xlink:href="#CourierNewPSMT-2e" transform="translate(60.009766 0)"/>
       <use xlink:href="#CourierNewPSMT-38" transform="translate(120.019531 0)"/>
      </g>
     </g>
    </g>
    <g id="ytick_6">
     <g id="line2d_65">
      <path d="M 90 627.381818 
L 648 627.381818 
" clip-path="url(#pf2810a6266)" style="fill: none; stroke: #b0b0b0; stroke-opacity: 0.15; stroke-width: 0.25; stroke-linecap: square"/>
     </g>
     <g id="line2d_66">
      <defs>
       <path id="mff60e85b03" d="M 0 0 
L -2 0 
" style="stroke: #000000; stroke-width: 0.6"/>
      </defs>
      <g>
       <use xlink:href="#mff60e85b03" x="90" y="627.381818" style="stroke: #000000; stroke-width: 0.6"/>
      </g>
     </g>
    </g>
    <g id="ytick_7">
     <g id="line2d_67">
      <path d="M 90 607.090909 
L 648 607.090909 
" clip-path="url(#pf2810a6266)" style="fill: none; stroke: #b0b0b0; stroke-opacity: 0.15; stroke-width: 0.25; stroke-linecap: square"/>
     </g>
     <g id="line2d_68">
      <g>
       <use xlink:href="#mff60e85b03" x="90" y="607.090909" style="stroke: #000000; stroke-width: 0.6"/>
      </g>
     </g>
    </g>
    <g id="ytick_8">
     <g id="line2d_69">
      <path d="M 90 586.8 
L 648 586.8 
" clip-path="url(#pf2810a6266)" style="fill: none; stroke: #b0b0b0; stroke-opacity: 0.15; stroke-width: 0.25; stroke-linecap: square"/>
     </g>
     <g id="line2d_70">
      <g>
       <use xlink:href="#mff60e85b03" x="90" y="586.8" style="stroke: #000000; stroke-width: 0.6"/>
      </g>
     </g>
    </g>
    <g id="ytick_9">
     <g id="line2d_71">
      <path d="M 90 566.509091 
L 648 566.509091 
" clip-path="url(#pf2810a6266)" style="fill: none; stroke: #b0b0b0; stroke-opacity: 0.15; stroke-width: 0.25; stroke-linecap: square"/>
     </g>
     <g id="line2d_72">
      <g>
       <use xlink:href="#mff60e85b03" x="90" y="566.509091" style="stroke: #000000; stroke-width: 0.6"/>
      </g>
     </g>
    </g>
    <g id="ytick_10">
     <g id="line2d_73">
      <path d="M 90 525.927273 
L 648 525.927273 
" clip-path="url(#pf2810a6266)" style="fill: none; stroke: #b0b0b0; stroke-opacity: 0.15; stroke-width: 0.25; stroke-linecap: square"/>
     </g>
     <g id="line2d_74">
      <g>
       <use xlink:href="#mff60e85b03" x="90" y="525.927273" style="stroke: #000000; stroke-width: 0.6"/>
      </g>
     </g>
    </g>
    <g id="ytick_11">
     <g id="line2d_75">
      <path d="M 90 505.636364 
L 648 505.636364 
" clip-path="url(#pf2810a6266)" style="fill: none; stroke: #b0b0b0; stroke-opacity: 0.15; stroke-width: 0.25; stroke-linecap: square"/>
     </g>
     <g id="line2d_76">
      <g>
       <use xlink:href="#mff60e85b03" x="90" y="505.636364" style="stroke: #000000; stroke-width: 0.6"/>
      </g>
     </g>
    </g>
    <g id="ytick_12">
     <g id="line2d_77">
      <path d="M 90 485.345455 
L 648 485.345455 
" clip-path="url(#pf2810a6266)" style="fill: none; stroke: #b0b0b0; stroke-opacity: 0.15; stroke-width: 0.25; stroke-linecap: square"/>
     </g>
     <g id="line2d_78">
      <g>
       <use xlink:href="#mff60e85b03" x="90" y="485.345455" style="stroke: #000000; stroke-width: 0.6"/>
      </g>
     </g>
    </g>
    <g id="ytick_13">
     <g id="line2d_79">
      <path d="M 90 465.054545 
L 648 465.054545 
" clip-path="url(#pf2810a6266)" style="fill: none; stroke: #b0b0b0; stroke-opacity: 0.15; stroke-width: 0.25; stroke-linecap: square"/>
     </g>
     <g id="line2d_80">
      <g>
       <use xlink:href="#mff60e85b03" x="90" y="465.054545" style="stroke: #000000; stroke-width: 0.6"/>
      </g>
     </g>
    </g>
    <g id="ytick_14">
     <g id="line2d_81">
      <path d="M 90 424.472727 
L 648 424.472727 
" clip-path="url(#pf2810a6266)" style="fill: none; stroke: #b0b0b0; stroke-opacity: 0.15; stroke-width: 0.25; stroke-linecap: square"/>
     </g>
     <g id="line2d_82">
      <g>
       <use xlink:href="#mff60e85b03" x="90" y="424.472727" style="stroke: #000000; stroke-width: 0.6"/>
      </g>
     </g>
    </g>
    <g id="ytick_15">
     <g id="line2d_83">
      <path d="M 90 404.181818 
L 648 404.181818 
" clip-path="url(#pf2810a6266)" style="fill: none; stroke: #b0b0b0; stroke-opacity: 0.15; stroke-width: 0.25; stroke-linecap: square"/>
     </g>
     <g id="line2d_84">
      <g>
       <use xlink:href="#mff60e85b03" x="90" y="404.181818" style="stroke: #000000; stroke-width: 0.6"/>
      </g>
     </g>
    </g>
    <g id="ytick_16">
     <g id="line2d_85">
      <path d="M 90 383.890909 
L 648 383.890909 
" clip-path="url(#pf2810a6266)" style="fill: none; stroke: #b0b0b0; stroke-opacity: 0.15; stroke-width: 0.25; stroke-linecap: square"/>
     </g>
     <g id="line2d_86">
      <g>
       <use xlink:href="#mff60e85b03" x="90" y="383.890909" style="stroke: #000000; stroke-width: 0.6"/>
      </g>
     </g>
    </g>
    <g id="ytick_17">
     <g id="line2d_87">
      <path d="M 90 363.6 
L 648 363.6 
" clip-path="url(#pf2810a6266)" style="fill: none; stroke: #b0b0b0; stroke-opacity: 0.15; stroke-width: 0.25; stroke-linecap: square"/>
     </g>
     <g id="line2d_88">
      <g>
       <use xlink:href="#mff60e85b03" x="90" y="363.6" style="stroke: #000000; stroke-width: 0.6"/>
      </g>
     </g>
    </g>
    <g id="ytick_18">
     <g id="line2d_89">
      <path d="M 90 323.018182 
L 648 323.018182 
" clip-path="url(#pf2810a6266)" style="fill: none; stroke: #b0b0b0; stroke-opacity: 0.15; stroke-width: 0.25; stroke-linecap: square"/>
     </g>
     <g id="line2d_90">
      <g>
       <use xlink:href="#mff60e85b03" x="90" y="323.018182" style="stroke: #000000; stroke-width: 0.6"/>
      </g>
     </g>
    </g>
    <g id="ytick_19">
     <g id="line2d_91">
      <path d="M 90 302.727273 
L 648 302.727273 
" clip-path="url(#pf2810a6266)" style="fill: none; stroke: #b0b0b0; stroke-opacity: 0.15; stroke-width: 0.25; stroke-linecap: square"/>
     </g>
     <g id="line2d_92">
      <g>
       <use xlink:href="#mff60e85b03" x="90" y="302.727273" style="stroke: #000000; stroke-width: 0.6"/>
      </g>
     </g>
    </g>
    <g id="ytick_20">
     <g id="line2d_93">
      <path d="M 90 282.436364 
L 648 282.436364 
" clip-path="url(#pf2810a6266)" style="fill: none; stroke: #b0b0b0; stroke-opacity: 0.15; stroke-width: 0.25; stroke-linecap: square"/>
     </g>
     <g id="line2d_94">
      <g>
       <use xlink:href="#mff60e85b03" x="90" y="282.436364" style="stroke: #000000; stroke-width: 0.6"/>
      </g>
     </g>
    </g>
    <g id="ytick_21">
     <g id="line2d_95">
      <path d="M 90 262.145455 
L 648 262.145455 
" clip-path="url(#pf2810a6266)" style="fill: none; stroke: #b0b0b0; stroke-opacity: 0.15; stroke-width: 0.25; stroke-linecap: square"/>
     </g>
     <g id="line2d_96">
      <g>
       <use xlink:href="#mff60e85b03" x="90" y="262.145455" style="stroke: #000000; stroke-width: 0.6"/>
      </g>
     </g>
    </g>
    <g id="ytick_22">
     <g id="line2d_97">
      <path d="M 90 221.563636 
L 648 221.563636 
" clip-path="url(#pf2810a6266)" style="fill: none; stroke: #b0b0b0; stroke-opacity: 0.15; stroke-width: 0.25; stroke-linecap: square"/>
     </g>
     <g id="line2d_98">
      <g>
       <use xlink:href="#mff60e85b03" x="90" y="221.563636" style="stroke: #000000; stroke-width: 0.6"/>
      </g>
     </g>
    </g>
    <g id="ytick_23">
     <g id="line2d_99">
      <path d="M 90 201.272727 
L 648 201.272727 
" clip-path="url(#pf2810a6266)" style="fill: none; stroke: #b0b0b0; stroke-opacity: 0.15; stroke-width: 0.25; stroke-linecap: square"/>
     </g>
     <g id="line2d_100">
      <g>
       <use xlink:href="#mff60e85b03" x="90" y="201.272727" style="stroke: #000000; stroke-width: 0.6"/>
      </g>
     </g>
    </g>
    <g id="ytick_24">
     <g id="line2d_101">
      <path d="M 90 180.981818 
L 648 180.981818 
" clip-path="url(#pf2810a6266)" style="fill: none; stroke: #b0b0b0; stroke-opacity: 0.15; stroke-width: 0.25; stroke-linecap: square"/>
     </g>
     <g id="line2d_102">
      <g>
       <use xlink:href="#mff60e85b03" x="90" y="180.981818" style="stroke: #000000; stroke-width: 0.6"/>
      </g>
     </g>
    </g>
    <g id="ytick_25">
     <g id="line2d_103">
      <path d="M 90 160.690909 
L 648 160.690909 
" clip-path="url(#pf2810a6266)" style="fill: none; stroke: #b0b0b0; stroke-opacity: 0.15; stroke-width: 0.25; stroke-linecap: square"/>
     </g>
     <g id="line2d_104">
      <g>
       <use xlink:href="#mff60e85b03" x="90" y="160.690909" style="stroke: #000000; stroke-width: 0.6"/>
      </g>
     </g>
    </g>
    <g id="ytick_26">
     <g id="line2d_105">
      <path d="M 90 120.109091 
L 648 120.109091 
" clip-path="url(#pf2810a6266)" style="fill: none; stroke: #b0b0b0; stroke-opacity: 0.15; stroke-width: 0.25; stroke-linecap: square"/>
     </g>
     <g id="line2d_106">
      <g>
       <use xlink:href="#mff60e85b03" x="90" y="120.109091" style="stroke: #000000; stroke-width: 0.6"/>
      </g>
     </g>
    </g>
    <g id="ytick_27">
     <g id="line2d_107">
      <path d="M 90 99.818182 
L 648 99.818182 
" clip-path="url(#pf2810a6266)" style="fill: none; stroke: #b0b0b0; stroke-opacity: 0.15; stroke-width: 0.25; stroke-linecap: square"/>
     </g>
     <g id="line2d_108">
      <g>
       <use xlink:href="#mff60e85b03" x="90" y="99.818182" style="stroke: #000000; stroke-width: 0.6"/>
      </g>
     </g>
    </g>
    <g id="text_12">
     <!-- Estimated Difficulty -->
     <g transform="translate(39.221875 483.63125) rotate(-90) scale(0.2 -0.2)">
      <defs>
       <path id="CourierNewPSMT-45" d="M 1066 1766 
L 1066 263 
L 3084 263 
L 3084 1038 
Q 3084 1131 3120 1172 
Q 3156 1213 3216 1213 
Q 3275 1213 3311 1172 
Q 3347 1131 3347 1038 
L 3347 0 
L 450 0 
Q 356 0 315 37 
Q 275 75 275 131 
Q 275 191 315 227 
Q 356 263 450 263 
L 803 263 
L 803 3394 
L 450 3394 
Q 356 3394 315 3430 
Q 275 3466 275 3525 
Q 275 3584 315 3620 
Q 356 3656 450 3656 
L 3209 3656 
L 3209 2753 
Q 3209 2659 3173 2618 
Q 3138 2578 3078 2578 
Q 3019 2578 2983 2618 
Q 2947 2659 2947 2753 
L 2947 3394 
L 1066 3394 
L 1066 2028 
L 2006 2028 
L 2006 2325 
Q 2006 2419 2043 2459 
Q 2081 2500 2141 2500 
Q 2197 2500 2234 2459 
Q 2272 2419 2272 2325 
L 2272 1469 
Q 2272 1375 2234 1334 
Q 2197 1294 2141 1294 
Q 2081 1294 2043 1334 
Q 2006 1375 2006 1469 
L 2006 1766 
L 1066 1766 
z
" transform="scale(0.015625)"/>
       <path id="CourierNewPSMT-73" d="M 2788 2534 
Q 2788 2625 2825 2665 
Q 2863 2706 2919 2706 
Q 2978 2706 3015 2665 
Q 3053 2625 3053 2528 
L 3053 2078 
Q 3053 1984 3015 1943 
Q 2978 1903 2919 1903 
Q 2866 1903 2830 1937 
Q 2794 1972 2788 2050 
Q 2769 2238 2594 2359 
Q 2338 2534 1916 2534 
Q 1475 2534 1231 2356 
Q 1047 2222 1047 2056 
Q 1047 1869 1266 1744 
Q 1416 1656 1834 1609 
Q 2381 1550 2594 1475 
Q 2897 1366 3045 1172 
Q 3194 978 3194 753 
Q 3194 419 2872 158 
Q 2550 -103 1928 -103 
Q 1306 -103 909 213 
Q 909 106 896 75 
Q 884 44 851 22 
Q 819 0 778 0 
Q 722 0 684 40 
Q 647 81 647 175 
L 647 716 
Q 647 809 683 850 
Q 719 891 778 891 
Q 834 891 873 852 
Q 913 813 913 747 
Q 913 603 984 506 
Q 1094 356 1333 257 
Q 1572 159 1919 159 
Q 2431 159 2681 350 
Q 2931 541 2931 753 
Q 2931 997 2678 1144 
Q 2422 1291 1933 1341 
Q 1444 1391 1231 1472 
Q 1019 1553 900 1715 
Q 781 1878 781 2066 
Q 781 2403 1112 2601 
Q 1444 2800 1903 2800 
Q 2447 2800 2788 2534 
z
" transform="scale(0.015625)"/>
       <path id="CourierNewPSMT-6d" d="M 725 2706 
L 725 2441 
Q 1059 2800 1397 2800 
Q 1600 2800 1753 2692 
Q 1906 2584 2009 2366 
Q 2184 2584 2364 2692 
Q 2544 2800 2725 2800 
Q 3009 2800 3178 2616 
Q 3400 2378 3400 2097 
L 3400 263 
L 3622 263 
Q 3716 263 3756 227 
Q 3797 191 3797 131 
Q 3797 75 3756 37 
Q 3716 0 3622 0 
L 3138 0 
L 3138 2072 
Q 3138 2272 3016 2403 
Q 2894 2534 2734 2534 
Q 2591 2534 2431 2426 
Q 2272 2319 2069 2003 
L 2069 263 
L 2288 263 
Q 2381 263 2422 227 
Q 2463 191 2463 131 
Q 2463 75 2422 37 
Q 2381 0 2288 0 
L 1803 0 
L 1803 2053 
Q 1803 2263 1679 2398 
Q 1556 2534 1403 2534 
Q 1263 2534 1125 2444 
Q 934 2316 725 2003 
L 725 263 
L 947 263 
Q 1041 263 1081 227 
Q 1122 191 1122 131 
Q 1122 75 1081 37 
Q 1041 0 947 0 
L 241 0 
Q 147 0 106 37 
Q 66 75 66 131 
Q 66 191 106 227 
Q 147 263 241 263 
L 463 263 
L 463 2441 
L 241 2441 
Q 147 2441 106 2478 
Q 66 2516 66 2575 
Q 66 2631 106 2668 
Q 147 2706 241 2706 
L 725 2706 
z
" transform="scale(0.015625)"/>
       <path id="CourierNewPSMT-65" d="M 3341 1291 
L 666 1291 
Q 734 781 1092 470 
Q 1450 159 1978 159 
Q 2272 159 2594 256 
Q 2916 353 3119 513 
Q 3178 559 3222 559 
Q 3272 559 3309 520 
Q 3347 481 3347 428 
Q 3347 375 3297 325 
Q 3147 169 2764 33 
Q 2381 -103 1978 -103 
Q 1303 -103 851 339 
Q 400 781 400 1409 
Q 400 1981 823 2390 
Q 1247 2800 1872 2800 
Q 2516 2800 2931 2379 
Q 3347 1959 3341 1291 
z
M 3075 1556 
Q 2997 1991 2664 2262 
Q 2331 2534 1872 2534 
Q 1413 2534 1081 2265 
Q 750 1997 669 1556 
L 3075 1556 
z
" transform="scale(0.015625)"/>
       <path id="CourierNewPSMT-64" d="M 3206 3922 
L 3206 263 
L 3556 263 
Q 3653 263 3693 227 
Q 3734 191 3734 131 
Q 3734 75 3693 37 
Q 3653 0 3556 0 
L 2941 0 
L 2941 522 
Q 2484 -103 1781 -103 
Q 1425 -103 1098 86 
Q 772 275 583 625 
Q 394 975 394 1347 
Q 394 1722 583 2070 
Q 772 2419 1098 2609 
Q 1425 2800 1784 2800 
Q 2472 2800 2941 2175 
L 2941 3656 
L 2591 3656 
Q 2494 3656 2453 3693 
Q 2413 3731 2413 3791 
Q 2413 3847 2453 3884 
Q 2494 3922 2591 3922 
L 3206 3922 
z
M 2941 1347 
Q 2941 1847 2603 2190 
Q 2266 2534 1800 2534 
Q 1331 2534 993 2190 
Q 656 1847 656 1347 
Q 656 850 993 504 
Q 1331 159 1800 159 
Q 2266 159 2603 504 
Q 2941 850 2941 1347 
z
" transform="scale(0.015625)"/>
      </defs>
      <use xlink:href="#CourierNewPSMT-45"/>
      <use xlink:href="#CourierNewPSMT-73" transform="translate(60.009766 0)"/>
      <use xlink:href="#CourierNewPSMT-74" transform="translate(120.019531 0)"/>
      <use xlink:href="#CourierNewPSMT-69" transform="translate(180.029297 0)"/>
      <use xlink:href="#CourierNewPSMT-6d" transform="translate(240.039062 0)"/>
      <use xlink:href="#CourierNewPSMT-61" transform="translate(300.048828 0)"/>
      <use xlink:href="#CourierNewPSMT-74" transform="translate(360.058594 0)"/>
      <use xlink:href="#CourierNewPSMT-65" transform="translate(420.068359 0)"/>
      <use xlink:href="#CourierNewPSMT-64" transform="translate(480.078125 0)"/>
      <use xlink:href="#CourierNewPSMT-20" transform="translate(540.087891 0)"/>
      <use xlink:href="#CourierNewPSMT-44" transform="translate(600.097656 0)"/>
      <use xlink:href="#CourierNewPSMT-69" transform="translate(660.107422 0)"/>
      <use xlink:href="#CourierNewPSMT-66" transform="translate(720.117188 0)"/>
      <use xlink:href="#CourierNewPSMT-66" transform="translate(780.126953 0)"/>
      <use xlink:href="#CourierNewPSMT-69" transform="translate(840.136719 0)"/>
      <use xlink:href="#CourierNewPSMT-63" transform="translate(900.146484 0)"/>
      <use xlink:href="#CourierNewPSMT-75" transform="translate(960.15625 0)"/>
      <use xlink:href="#CourierNewPSMT-6c" transform="translate(1020.166016 0)"/>
      <use xlink:href="#CourierNewPSMT-74" transform="translate(1080.175781 0)"/>
      <use xlink:href="#CourierNewPSMT-79" transform="translate(1140.185547 0)"/>
     </g>
    </g>
   </g>
   <g id="line2d_109">
    <path d="M 115.363636 617.236364 
L 622.636364 109.963636 
" clip-path="url(#pf2810a6266)" style="fill: none; stroke-dasharray: 9.62,4.16; stroke-dashoffset: 0; stroke: #a1a1a1; stroke-width: 2.6"/>
   </g>
   <g id="line2d_110">
    <path d="M 90 367.796758 
L 648 367.796758 
" clip-path="url(#pf2810a6266)" style="fill: none; stroke: #707070; stroke-width: 2.6; stroke-linecap: square"/>
   </g>
   <g id="patch_3">
    <path d="M 90 640.8 
L 90 86.4 
" style="fill: none; stroke: #000000; stroke-width: 0.8; stroke-linejoin: miter; stroke-linecap: square"/>
   </g>
   <g id="patch_4">
    <path d="M 648 640.8 
L 648 86.4 
" style="fill: none; stroke: #000000; stroke-width: 0.8; stroke-linejoin: miter; stroke-linecap: square"/>
   </g>
   <g id="patch_5">
    <path d="M 90 640.8 
L 648 640.8 
" style="fill: none; stroke: #000000; stroke-width: 0.8; stroke-linejoin: miter; stroke-linecap: square"/>
   </g>
   <g id="patch_6">
    <path d="M 90 86.4 
L 648 86.4 
" style="fill: none; stroke: #000000; stroke-width: 0.8; stroke-linejoin: miter; stroke-linecap: square"/>
   </g>
   <g id="PathCollection_1">
    <defs>
     <path id="C0_0_b00f51352c" d="M 0 4.743416 
C 1.257969 4.743416 2.464584 4.24362 3.354102 3.354102 
C 4.24362 2.464584 4.743416 1.257969 4.743416 -0 
C 4.743416 -1.257969 4.24362 -2.464584 3.354102 -3.354102 
C 2.464584 -4.24362 1.257969 -4.743416 0 -4.743416 
C -1.257969 -4.743416 -2.464584 -4.24362 -3.354102 -3.354102 
C -4.24362 -2.464584 -4.743416 -1.257969 -4.743416 0 
C -4.743416 1.257969 -4.24362 2.464584 -3.354102 3.354102 
C -2.464584 4.24362 -1.257969 4.743416 0 4.743416 
z
"/>
    </defs>
    <g clip-path="url(#pf2810a6266)">
     <use xlink:href="#C0_0_b00f51352c" x="318.272727" y="386.729842" style="fill: #8a8cba; stroke: #565f90; stroke-width: 1.5"/>
    </g>
    <g clip-path="url(#pf2810a6266)">
     <use xlink:href="#C0_0_b00f51352c" x="399.436364" y="423.007035" style="fill: #8597b9; stroke: #4d6b91; stroke-width: 1.5"/>
    </g>
    <g clip-path="url(#pf2810a6266)">
     <use xlink:href="#C0_0_b00f51352c" x="571.909091" y="451.316102" style="fill: #7aaeb7; stroke: #3c8593; stroke-width: 1.5"/>
    </g>
    <g clip-path="url(#pf2810a6266)">
     <use xlink:href="#C0_0_b00f51352c" x="318.272727" y="342.280231" style="fill: #8a8cba; stroke: #565f90; stroke-width: 1.5"/>
    </g>
    <g clip-path="url(#pf2810a6266)">
     <use xlink:href="#C0_0_b00f51352c" x="338.563636" y="308.814776" style="fill: #888fba; stroke: #546290; stroke-width: 1.5"/>
    </g>
    <g clip-path="url(#pf2810a6266)">
     <use xlink:href="#C0_0_b00f51352c" x="419.727273" y="265.715745" style="fill: #839ab9; stroke: #4b6e91; stroke-width: 1.5"/>
    </g>
    <g clip-path="url(#pf2810a6266)">
     <use xlink:href="#C0_0_b00f51352c" x="166.090909" y="467.408978" style="fill: #9378bc; stroke: #65488e; stroke-width: 1.5"/>
    </g>
    <g clip-path="url(#pf2810a6266)">
     <use xlink:href="#C0_0_b00f51352c" x="531.327273" y="300.987457" style="fill: #7da9b7; stroke: #407f93; stroke-width: 1.5"/>
    </g>
    <g clip-path="url(#pf2810a6266)">
     <use xlink:href="#C0_0_b00f51352c" x="145.8" y="368.960997" style="fill: #9475bd; stroke: #67458d; stroke-width: 1.5"/>
    </g>
    <g clip-path="url(#pf2810a6266)">
     <use xlink:href="#C0_0_b00f51352c" x="571.909091" y="334.53275" style="fill: #7aaeb7; stroke: #3c8593; stroke-width: 1.5"/>
    </g>
    <g clip-path="url(#pf2810a6266)">
     <use xlink:href="#C0_0_b00f51352c" x="267.545455" y="304.690918" style="fill: #8d85bb; stroke: #5b578f; stroke-width: 1.5"/>
    </g>
    <g clip-path="url(#pf2810a6266)">
     <use xlink:href="#C0_0_b00f51352c" x="226.963636" y="488.714097" style="fill: #8f80bb; stroke: #5f518f; stroke-width: 1.5"/>
    </g>
    <g clip-path="url(#pf2810a6266)">
     <use xlink:href="#C0_0_b00f51352c" x="450.163636" y="297.15119" style="fill: #829eb8; stroke: #487392; stroke-width: 1.5"/>
    </g>
    <g clip-path="url(#pf2810a6266)">
     <use xlink:href="#C0_0_b00f51352c" x="612.490909" y="268.208761" style="fill: #78b4b6; stroke: #388b94; stroke-width: 1.5"/>
    </g>
    <g clip-path="url(#pf2810a6266)">
     <use xlink:href="#C0_0_b00f51352c" x="308.127273" y="326.163498" style="fill: #8a8bba; stroke: #575d90; stroke-width: 1.5"/>
    </g>
    <g clip-path="url(#pf2810a6266)">
     <use xlink:href="#C0_0_b00f51352c" x="297.981818" y="304.837478" style="fill: #8b8aba; stroke: #585c90; stroke-width: 1.5"/>
    </g>
    <g clip-path="url(#pf2810a6266)">
     <use xlink:href="#C0_0_b00f51352c" x="176.236364" y="400.901749" style="fill: #9279bc; stroke: #64498e; stroke-width: 1.5"/>
    </g>
    <g clip-path="url(#pf2810a6266)">
     <use xlink:href="#C0_0_b00f51352c" x="318.272727" y="398.591993" style="fill: #8a8cba; stroke: #565f90; stroke-width: 1.5"/>
    </g>
    <g clip-path="url(#pf2810a6266)">
     <use xlink:href="#C0_0_b00f51352c" x="257.4" y="474.936834" style="fill: #8d84bb; stroke: #5c558f; stroke-width: 1.5"/>
    </g>
    <g clip-path="url(#pf2810a6266)">
     <use xlink:href="#C0_0_b00f51352c" x="318.272727" y="371.906144" style="fill: #8a8cba; stroke: #565f90; stroke-width: 1.5"/>
    </g>
    <g clip-path="url(#pf2810a6266)">
     <use xlink:href="#C0_0_b00f51352c" x="470.454545" y="388.636751" style="fill: #80a1b8; stroke: #467692; stroke-width: 1.5"/>
    </g>
    <g clip-path="url(#pf2810a6266)">
     <use xlink:href="#C0_0_b00f51352c" x="176.236364" y="407.356062" style="fill: #9279bc; stroke: #64498e; stroke-width: 1.5"/>
    </g>
    <g clip-path="url(#pf2810a6266)">
     <use xlink:href="#C0_0_b00f51352c" x="318.272727" y="471.946275" style="fill: #8a8cba; stroke: #565f90; stroke-width: 1.5"/>
    </g>
    <g clip-path="url(#pf2810a6266)">
     <use xlink:href="#C0_0_b00f51352c" x="247.254545" y="466.62012" style="fill: #8e83bb; stroke: #5d548f; stroke-width: 1.5"/>
    </g>
    <g clip-path="url(#pf2810a6266)">
     <use xlink:href="#C0_0_b00f51352c" x="328.418182" y="362.550138" style="fill: #898eba; stroke: #556090; stroke-width: 1.5"/>
    </g>
    <g clip-path="url(#pf2810a6266)">
     <use xlink:href="#C0_0_b00f51352c" x="115.363636" y="330.956977" style="fill: #9671bd; stroke: #6a408d; stroke-width: 1.5"/>
    </g>
    <g clip-path="url(#pf2810a6266)">
     <use xlink:href="#C0_0_b00f51352c" x="115.363636" y="311.548904" style="fill: #9671bd; stroke: #6a408d; stroke-width: 1.5"/>
    </g>
    <g clip-path="url(#pf2810a6266)">
     <use xlink:href="#C0_0_b00f51352c" x="490.745455" y="351.152912" style="fill: #7fa3b8; stroke: #447992; stroke-width: 1.5"/>
    </g>
    <g clip-path="url(#pf2810a6266)">
     <use xlink:href="#C0_0_b00f51352c" x="419.727273" y="434.778013" style="fill: #839ab9; stroke: #4b6e91; stroke-width: 1.5"/>
    </g>
    <g clip-path="url(#pf2810a6266)">
     <use xlink:href="#C0_0_b00f51352c" x="348.709091" y="334.418726" style="fill: #8890ba; stroke: #536390; stroke-width: 1.5"/>
    </g>
    <g clip-path="url(#pf2810a6266)">
     <use xlink:href="#C0_0_b00f51352c" x="399.436364" y="481.654866" style="fill: #8597b9; stroke: #4d6b91; stroke-width: 1.5"/>
    </g>
    <g clip-path="url(#pf2810a6266)">
     <use xlink:href="#C0_0_b00f51352c" x="399.436364" y="370.753327" style="fill: #8597b9; stroke: #4d6b91; stroke-width: 1.5"/>
    </g>
    <g clip-path="url(#pf2810a6266)">
     <use xlink:href="#C0_0_b00f51352c" x="267.545455" y="367.436173" style="fill: #8d85bb; stroke: #5b578f; stroke-width: 1.5"/>
    </g>
    <g clip-path="url(#pf2810a6266)">
     <use xlink:href="#C0_0_b00f51352c" x="166.090909" y="315.237039" style="fill: #9378bc; stroke: #65488e; stroke-width: 1.5"/>
    </g>
    <g clip-path="url(#pf2810a6266)">
     <use xlink:href="#C0_0_b00f51352c" x="328.418182" y="418.178696" style="fill: #898eba; stroke: #556090; stroke-width: 1.5"/>
    </g>
    <g clip-path="url(#pf2810a6266)">
     <use xlink:href="#C0_0_b00f51352c" x="450.163636" y="343.715328" style="fill: #829eb8; stroke: #487392; stroke-width: 1.5"/>
    </g>
    <g clip-path="url(#pf2810a6266)">
     <use xlink:href="#C0_0_b00f51352c" x="500.890909" y="333.529193" style="fill: #7ea5b8; stroke: #437b92; stroke-width: 1.5"/>
    </g>
    <g clip-path="url(#pf2810a6266)">
     <use xlink:href="#C0_0_b00f51352c" x="308.127273" y="347.997778" style="fill: #8a8bba; stroke: #575d90; stroke-width: 1.5"/>
    </g>
    <g clip-path="url(#pf2810a6266)">
     <use xlink:href="#C0_0_b00f51352c" x="450.163636" y="433.78762" style="fill: #829eb8; stroke: #487392; stroke-width: 1.5"/>
    </g>
    <g clip-path="url(#pf2810a6266)">
     <use xlink:href="#C0_0_b00f51352c" x="500.890909" y="289.543482" style="fill: #7ea5b8; stroke: #437b92; stroke-width: 1.5"/>
    </g>
    <g clip-path="url(#pf2810a6266)">
     <use xlink:href="#C0_0_b00f51352c" x="531.327273" y="343.67902" style="fill: #7da9b7; stroke: #407f93; stroke-width: 1.5"/>
    </g>
    <g clip-path="url(#pf2810a6266)">
     <use xlink:href="#C0_0_b00f51352c" x="622.636364" y="291.476522" style="fill: #77b5b6; stroke: #378d94; stroke-width: 1.5"/>
    </g>
    <g clip-path="url(#pf2810a6266)">
     <use xlink:href="#C0_0_b00f51352c" x="318.272727" y="294.305183" style="fill: #8a8cba; stroke: #565f90; stroke-width: 1.5"/>
    </g>
    <g clip-path="url(#pf2810a6266)">
     <use xlink:href="#C0_0_b00f51352c" x="440.018182" y="508.306547" style="fill: #829cb9; stroke: #497191; stroke-width: 1.5"/>
    </g>
    <g clip-path="url(#pf2810a6266)">
     <use xlink:href="#C0_0_b00f51352c" x="287.836364" y="349.741754" style="fill: #8b88bb; stroke: #595a8f; stroke-width: 1.5"/>
    </g>
    <g clip-path="url(#pf2810a6266)">
     <use xlink:href="#C0_0_b00f51352c" x="247.254545" y="357.841662" style="fill: #8e83bb; stroke: #5d548f; stroke-width: 1.5"/>
    </g>
    <g clip-path="url(#pf2810a6266)">
     <use xlink:href="#C0_0_b00f51352c" x="369" y="311.611485" style="fill: #8793ba; stroke: #516690; stroke-width: 1.5"/>
    </g>
    <g clip-path="url(#pf2810a6266)">
     <use xlink:href="#C0_0_b00f51352c" x="277.690909" y="349.627273" style="fill: #8c87bb; stroke: #5a588f; stroke-width: 1.5"/>
    </g>
   </g>
   <g id="text_13">
    <!-- Comparison of Predicted Difficulty -->
    <g transform="translate(164.946875 80.4) scale(0.2 -0.2)">
     <defs>
      <path id="CourierNewPSMT-43" d="M 3075 3297 
L 3075 3481 
Q 3075 3575 3111 3615 
Q 3147 3656 3206 3656 
Q 3266 3656 3302 3615 
Q 3338 3575 3338 3481 
L 3338 2753 
Q 3338 2656 3302 2615 
Q 3266 2575 3206 2575 
Q 3153 2575 3117 2612 
Q 3081 2650 3075 2734 
Q 3059 2997 2791 3200 
Q 2428 3478 1966 3478 
Q 1663 3478 1394 3344 
Q 1194 3247 1075 3106 
Q 869 2863 747 2566 
Q 659 2347 659 2072 
L 659 1613 
Q 659 1025 1084 592 
Q 1509 159 2072 159 
Q 2409 159 2676 306 
Q 2944 453 3194 750 
Q 3247 816 3313 816 
Q 3369 816 3403 781 
Q 3438 747 3438 694 
Q 3438 622 3303 475 
Q 3047 188 2726 42 
Q 2406 -103 2078 -103 
Q 1794 -103 1500 6 
Q 1275 91 1128 203 
Q 981 316 767 583 
Q 553 850 475 1076 
Q 397 1303 397 1575 
L 397 2109 
Q 397 2497 605 2901 
Q 813 3306 1173 3523 
Q 1534 3741 1956 3741 
Q 2606 3741 3075 3297 
z
" transform="scale(0.015625)"/>
      <path id="CourierNewPSMT-6f" d="M 3388 1347 
Q 3388 747 2958 322 
Q 2528 -103 1922 -103 
Q 1309 -103 881 323 
Q 453 750 453 1347 
Q 453 1947 881 2373 
Q 1309 2800 1922 2800 
Q 2528 2800 2958 2375 
Q 3388 1950 3388 1347 
z
M 3122 1347 
Q 3122 1841 2770 2187 
Q 2419 2534 1919 2534 
Q 1419 2534 1067 2186 
Q 716 1838 716 1347 
Q 716 859 1067 509 
Q 1419 159 1919 159 
Q 2419 159 2770 507 
Q 3122 856 3122 1347 
z
" transform="scale(0.015625)"/>
      <path id="CourierNewPSMT-70" d="M 931 2706 
L 931 2228 
Q 1166 2513 1434 2656 
Q 1703 2800 2069 2800 
Q 2456 2800 2784 2619 
Q 3113 2438 3292 2114 
Q 3472 1791 3472 1434 
Q 3472 869 3067 467 
Q 2663 66 2072 66 
Q 1369 66 931 638 
L 931 -944 
L 1569 -944 
Q 1663 -944 1703 -980 
Q 1744 -1016 1744 -1075 
Q 1744 -1131 1703 -1168 
Q 1663 -1206 1569 -1206 
L 316 -1206 
Q 222 -1206 181 -1170 
Q 141 -1134 141 -1075 
Q 141 -1016 181 -980 
Q 222 -944 316 -944 
L 669 -944 
L 669 2441 
L 316 2441 
Q 222 2441 181 2478 
Q 141 2516 141 2575 
Q 141 2631 181 2668 
Q 222 2706 316 2706 
L 931 2706 
z
M 3206 1434 
Q 3206 1888 2876 2211 
Q 2547 2534 2072 2534 
Q 1594 2534 1262 2209 
Q 931 1884 931 1434 
Q 931 981 1262 656 
Q 1594 331 2072 331 
Q 2544 331 2875 654 
Q 3206 978 3206 1434 
z
" transform="scale(0.015625)"/>
      <path id="CourierNewPSMT-72" d="M 1606 2706 
L 1606 2044 
Q 2119 2506 2373 2639 
Q 2628 2772 2844 2772 
Q 3078 2772 3279 2614 
Q 3481 2456 3481 2375 
Q 3481 2316 3442 2277 
Q 3403 2238 3344 2238 
Q 3313 2238 3291 2248 
Q 3269 2259 3209 2319 
Q 3100 2428 3019 2468 
Q 2938 2509 2859 2509 
Q 2688 2509 2445 2371 
Q 2203 2234 1606 1700 
L 1606 263 
L 2769 263 
Q 2866 263 2906 227 
Q 2947 191 2947 131 
Q 2947 75 2906 37 
Q 2866 0 2769 0 
L 709 0 
Q 616 0 575 36 
Q 534 72 534 128 
Q 534 181 573 217 
Q 613 253 709 253 
L 1344 253 
L 1344 2441 
L 859 2441 
Q 766 2441 725 2478 
Q 684 2516 684 2575 
Q 684 2631 723 2668 
Q 763 2706 859 2706 
L 1606 2706 
z
" transform="scale(0.015625)"/>
      <path id="CourierNewPSMT-6e" d="M 1072 2706 
L 1072 2309 
Q 1347 2588 1569 2694 
Q 1791 2800 2069 2800 
Q 2369 2800 2616 2672 
Q 2791 2578 2933 2361 
Q 3075 2144 3075 1916 
L 3075 263 
L 3297 263 
Q 3391 263 3431 227 
Q 3472 191 3472 131 
Q 3472 75 3431 37 
Q 3391 0 3297 0 
L 2594 0 
Q 2497 0 2456 37 
Q 2416 75 2416 131 
Q 2416 191 2456 227 
Q 2497 263 2594 263 
L 2813 263 
L 2813 1872 
Q 2813 2150 2609 2342 
Q 2406 2534 2066 2534 
Q 1806 2534 1615 2429 
Q 1425 2325 1072 1909 
L 1072 263 
L 1369 263 
Q 1463 263 1503 227 
Q 1544 191 1544 131 
Q 1544 75 1503 37 
Q 1463 0 1369 0 
L 513 0 
Q 419 0 378 37 
Q 338 75 338 131 
Q 338 191 378 227 
Q 419 263 513 263 
L 809 263 
L 809 2441 
L 588 2441 
Q 494 2441 453 2478 
Q 413 2516 413 2575 
Q 413 2631 453 2668 
Q 494 2706 588 2706 
L 1072 2706 
z
" transform="scale(0.015625)"/>
      <path id="CourierNewPSMT-50" d="M 1350 1500 
L 1350 263 
L 2250 263 
Q 2344 263 2384 227 
Q 2425 191 2425 131 
Q 2425 75 2384 37 
Q 2344 0 2250 0 
L 734 0 
Q 641 0 600 37 
Q 559 75 559 131 
Q 559 191 600 227 
Q 641 263 734 263 
L 1088 263 
L 1088 3394 
L 734 3394 
Q 641 3394 600 3430 
Q 559 3466 559 3525 
Q 559 3584 600 3620 
Q 641 3656 734 3656 
L 2259 3656 
Q 2800 3656 3142 3337 
Q 3484 3019 3484 2591 
Q 3484 2338 3373 2134 
Q 3263 1931 3106 1816 
Q 2872 1641 2622 1559 
Q 2441 1500 2172 1500 
L 1350 1500 
z
M 1350 1763 
L 2188 1763 
Q 2478 1763 2733 1892 
Q 2988 2022 3105 2209 
Q 3222 2397 3222 2591 
Q 3222 2900 2956 3147 
Q 2691 3394 2284 3394 
L 1350 3394 
L 1350 1763 
z
" transform="scale(0.015625)"/>
     </defs>
     <use xlink:href="#CourierNewPSMT-43"/>
     <use xlink:href="#CourierNewPSMT-6f" transform="translate(60.009766 0)"/>
     <use xlink:href="#CourierNewPSMT-6d" transform="translate(120.019531 0)"/>
     <use xlink:href="#CourierNewPSMT-70" transform="translate(180.029297 0)"/>
     <use xlink:href="#CourierNewPSMT-61" transform="translate(240.039062 0)"/>
     <use xlink:href="#CourierNewPSMT-72" transform="translate(300.048828 0)"/>
     <use xlink:href="#CourierNewPSMT-69" transform="translate(360.058594 0)"/>
     <use xlink:href="#CourierNewPSMT-73" transform="translate(420.068359 0)"/>
     <use xlink:href="#CourierNewPSMT-6f" transform="translate(480.078125 0)"/>
     <use xlink:href="#CourierNewPSMT-6e" transform="translate(540.087891 0)"/>
     <use xlink:href="#CourierNewPSMT-20" transform="translate(600.097656 0)"/>
     <use xlink:href="#CourierNewPSMT-6f" transform="translate(660.107422 0)"/>
     <use xlink:href="#CourierNewPSMT-66" transform="translate(720.117188 0)"/>
     <use xlink:href="#CourierNewPSMT-20" transform="translate(780.126953 0)"/>
     <use xlink:href="#CourierNewPSMT-50" transform="translate(840.136719 0)"/>
     <use xlink:href="#CourierNewPSMT-72" transform="translate(900.146484 0)"/>
     <use xlink:href="#CourierNewPSMT-65" transform="translate(960.15625 0)"/>
     <use xlink:href="#CourierNewPSMT-64" transform="translate(1020.166016 0)"/>
     <use xlink:href="#CourierNewPSMT-69" transform="translate(1080.175781 0)"/>
     <use xlink:href="#CourierNewPSMT-63" transform="translate(1140.185547 0)"/>
     <use xlink:href="#CourierNewPSMT-74" transform="translate(1200.195312 0)"/>
     <use xlink:href="#CourierNewPSMT-65" transform="translate(1260.205078 0)"/>
     <use xlink:href="#CourierNewPSMT-64" transform="translate(1320.214844 0)"/>
     <use xlink:href="#CourierNewPSMT-20" transform="translate(1380.224609 0)"/>
     <use xlink:href="#CourierNewPSMT-44" transform="translate(1440.234375 0)"/>
     <use xlink:href="#CourierNewPSMT-69" transform="translate(1500.244141 0)"/>
     <use xlink:href="#CourierNewPSMT-66" transform="translate(1560.253906 0)"/>
     <use xlink:href="#CourierNewPSMT-66" transform="translate(1620.263672 0)"/>
     <use xlink:href="#CourierNewPSMT-69" transform="translate(1680.273438 0)"/>
     <use xlink:href="#CourierNewPSMT-63" transform="translate(1740.283203 0)"/>
     <use xlink:href="#CourierNewPSMT-75" transform="translate(1800.292969 0)"/>
     <use xlink:href="#CourierNewPSMT-6c" transform="translate(1860.302734 0)"/>
     <use xlink:href="#CourierNewPSMT-74" transform="translate(1920.3125 0)"/>
     <use xlink:href="#CourierNewPSMT-79" transform="translate(1980.322266 0)"/>
    </g>
   </g>
   <g id="legend_1">
    <g id="line2d_111">
     <path d="M 106.951563 55.96 
L 126.951563 55.96 
L 146.951563 55.96 
" style="fill: none; stroke-dasharray: 9.62,4.16; stroke-dashoffset: 0; stroke: #a1a1a1; stroke-width: 2.6"/>
    </g>
    <g id="text_14">
     <!-- Optimal -->
     <g transform="translate(162.951563 62.96) scale(0.2 -0.2)">
      <defs>
       <path id="CourierNewPSMT-4f" d="M 3525 1819 
Q 3525 1294 3312 845 
Q 3100 397 2726 147 
Q 2353 -103 1925 -103 
Q 1291 -103 808 436 
Q 325 975 325 1819 
Q 325 2666 808 3203 
Q 1291 3741 1925 3741 
Q 2353 3741 2725 3491 
Q 3097 3241 3311 2794 
Q 3525 2347 3525 1819 
z
M 3259 1819 
Q 3259 2459 2887 2968 
Q 2516 3478 1925 3478 
Q 1372 3478 980 2992 
Q 588 2506 588 1819 
Q 588 1088 998 623 
Q 1409 159 1925 159 
Q 2516 159 2887 667 
Q 3259 1175 3259 1819 
z
" transform="scale(0.015625)"/>
      </defs>
      <use xlink:href="#CourierNewPSMT-4f"/>
      <use xlink:href="#CourierNewPSMT-70" transform="translate(60.009766 0)"/>
      <use xlink:href="#CourierNewPSMT-74" transform="translate(120.019531 0)"/>
      <use xlink:href="#CourierNewPSMT-69" transform="translate(180.029297 0)"/>
      <use xlink:href="#CourierNewPSMT-6d" transform="translate(240.039062 0)"/>
      <use xlink:href="#CourierNewPSMT-61" transform="translate(300.048828 0)"/>
      <use xlink:href="#CourierNewPSMT-6c" transform="translate(360.058594 0)"/>
     </g>
    </g>
    <g id="line2d_112">
     <path d="M 286.973438 55.96 
L 306.973438 55.96 
L 326.973438 55.96 
" style="fill: none; stroke: #707070; stroke-width: 2.6; stroke-linecap: square"/>
    </g>
    <g id="text_15">
     <!-- Mean of estimated Values -->
     <g transform="translate(342.973438 62.96) scale(0.2 -0.2)">
      <defs>
       <path id="CourierNewPSMT-4d" d="M 2094 1097 
L 1794 1097 
L 784 3394 
L 734 3394 
L 734 263 
L 1219 263 
Q 1313 263 1353 227 
Q 1394 191 1394 131 
Q 1394 75 1353 37 
Q 1313 0 1219 0 
L 250 0 
Q 156 0 115 37 
Q 75 75 75 131 
Q 75 191 115 227 
Q 156 263 250 263 
L 472 263 
L 472 3394 
L 306 3394 
Q 213 3394 172 3430 
Q 131 3466 131 3525 
Q 131 3584 172 3620 
Q 213 3656 306 3656 
L 950 3656 
L 1944 1394 
L 2922 3656 
L 3566 3656 
Q 3663 3656 3703 3620 
Q 3744 3584 3744 3525 
Q 3744 3466 3703 3430 
Q 3663 3394 3566 3394 
L 3403 3394 
L 3403 263 
L 3622 263 
Q 3719 263 3759 227 
Q 3800 191 3800 131 
Q 3800 75 3759 37 
Q 3719 0 3622 0 
L 2656 0 
Q 2563 0 2520 37 
Q 2478 75 2478 131 
Q 2478 191 2518 227 
Q 2559 263 2656 263 
L 3141 263 
L 3141 3394 
L 3084 3394 
L 2094 1097 
z
" transform="scale(0.015625)"/>
       <path id="CourierNewPSMT-56" d="M 2116 0 
L 1750 0 
L 428 3394 
L 225 3394 
Q 153 3394 122 3408 
Q 91 3422 70 3455 
Q 50 3488 50 3525 
Q 50 3563 70 3595 
Q 91 3628 122 3642 
Q 153 3656 225 3656 
L 1203 3656 
Q 1278 3656 1308 3642 
Q 1338 3628 1358 3595 
Q 1378 3563 1378 3525 
Q 1378 3488 1356 3455 
Q 1334 3422 1304 3408 
Q 1275 3394 1203 3394 
L 700 3394 
L 1919 263 
L 1938 263 
L 3141 3394 
L 2641 3394 
Q 2566 3394 2534 3408 
Q 2503 3422 2483 3455 
Q 2463 3488 2463 3525 
Q 2463 3563 2484 3595 
Q 2506 3628 2536 3642 
Q 2566 3656 2641 3656 
L 3616 3656 
Q 3691 3656 3722 3642 
Q 3753 3628 3773 3595 
Q 3794 3563 3794 3525 
Q 3794 3488 3772 3455 
Q 3750 3422 3720 3408 
Q 3691 3394 3616 3394 
L 3416 3394 
L 2116 0 
z
" transform="scale(0.015625)"/>
      </defs>
      <use xlink:href="#CourierNewPSMT-4d"/>
      <use xlink:href="#CourierNewPSMT-65" transform="translate(60.009766 0)"/>
      <use xlink:href="#CourierNewPSMT-61" transform="translate(120.019531 0)"/>
      <use xlink:href="#CourierNewPSMT-6e" transform="translate(180.029297 0)"/>
      <use xlink:href="#CourierNewPSMT-20" transform="translate(240.039062 0)"/>
      <use xlink:href="#CourierNewPSMT-6f" transform="translate(300.048828 0)"/>
      <use xlink:href="#CourierNewPSMT-66" transform="translate(360.058594 0)"/>
      <use xlink:href="#CourierNewPSMT-20" transform="translate(420.068359 0)"/>
      <use xlink:href="#CourierNewPSMT-65" transform="translate(480.078125 0)"/>
      <use xlink:href="#CourierNewPSMT-73" transform="translate(540.087891 0)"/>
      <use xlink:href="#CourierNewPSMT-74" transform="translate(600.097656 0)"/>
      <use xlink:href="#CourierNewPSMT-69" transform="translate(660.107422 0)"/>
      <use xlink:href="#CourierNewPSMT-6d" transform="translate(720.117188 0)"/>
      <use xlink:href="#CourierNewPSMT-61" transform="translate(780.126953 0)"/>
      <use xlink:href="#CourierNewPSMT-74" transform="translate(840.136719 0)"/>
      <use xlink:href="#CourierNewPSMT-65" transform="translate(900.146484 0)"/>
      <use xlink:href="#CourierNewPSMT-64" transform="translate(960.15625 0)"/>
      <use xlink:href="#CourierNewPSMT-20" transform="translate(1020.166016 0)"/>
      <use xlink:href="#CourierNewPSMT-56" transform="translate(1080.175781 0)"/>
      <use xlink:href="#CourierNewPSMT-61" transform="translate(1140.185547 0)"/>
      <use xlink:href="#CourierNewPSMT-6c" transform="translate(1200.195312 0)"/>
      <use xlink:href="#CourierNewPSMT-75" transform="translate(1260.205078 0)"/>
      <use xlink:href="#CourierNewPSMT-65" transform="translate(1320.214844 0)"/>
      <use xlink:href="#CourierNewPSMT-73" transform="translate(1380.224609 0)"/>
     </g>
    </g>
   </g>
  </g>
 </g>
 <defs>
  <clipPath id="pf2810a6266">
   <rect x="90" y="86.4" width="558" height="554.4"/>
  </clipPath>
 </defs>
</svg>
