<?xml version="1.0" encoding="utf-8" standalone="no"?>
<!DOCTYPE svg PUBLIC "-//W3C//DTD SVG 1.1//EN"
  "http://www.w3.org/Graphics/SVG/1.1/DTD/svg11.dtd">
<svg xmlns:xlink="http://www.w3.org/1999/xlink" width="720pt" height="720pt" viewBox="0 0 720 720" xmlns="http://www.w3.org/2000/svg" version="1.1">
 <metadata>
  <rdf:RDF xmlns:dc="http://purl.org/dc/elements/1.1/" xmlns:cc="http://creativecommons.org/ns#" xmlns:rdf="http://www.w3.org/1999/02/22-rdf-syntax-ns#">
   <cc:Work>
    <dc:type rdf:resource="http://purl.org/dc/dcmitype/StillImage"/>
    <dc:date>2025-07-30T18:05:12.904345</dc:date>
    <dc:format>image/svg+xml</dc:format>
    <dc:creator>
     <cc:Agent>
      <dc:title>Matplotlib v3.10.3, https://matplotlib.org/</dc:title>
     </cc:Agent>
    </dc:creator>
   </cc:Work>
  </rdf:RDF>
 </metadata>
 <defs>
  <style type="text/css">*{stroke-linejoin: round; stroke-linecap: butt}</style>
 </defs>
 <g id="figure_1">
  <g id="patch_1">
   <path d="M 0 720 
L 720 720 
L 720 0 
L 0 0 
z
" style="fill: #ffffff"/>
  </g>
  <g id="axes_1">
   <g id="patch_2">
    <path d="M 90 640.8 
L 648 640.8 
L 648 86.4 
L 90 86.4 
z
" style="fill: #ffffff"/>
   </g>
   <g id="matplotlib.axis_1">
    <g id="xtick_1">
     <g id="line2d_1">
      <path d="M 154.994318 640.8 
L 154.994318 86.4 
" clip-path="url(#p6f26041b15)" style="fill: none; stroke: #b0b0b0; stroke-opacity: 0.25; stroke-width: 0.75; stroke-linecap: square"/>
     </g>
     <g id="line2d_2">
      <defs>
       <path id="mc24afe8321" d="M 0 0 
L 0 3.5 
" style="stroke: #000000; stroke-width: 0.8"/>
      </defs>
      <g>
       <use xlink:href="#mc24afe8321" x="154.994318" y="640.8" style="stroke: #000000; stroke-width: 0.8"/>
      </g>
     </g>
     <g id="text_1">
      <!-- 0.3 -->
      <g transform="translate(136.989631 660.05625) scale(0.2 -0.2)">
       <defs>
        <path id="CourierNewPSMT-30" d="M 3125 2284 
L 3125 1634 
Q 3125 788 2722 294 
Q 2406 -94 1925 -94 
Q 1694 -94 1489 -1 
Q 1284 91 1141 256 
Q 1050 359 942 587 
Q 834 816 788 1006 
Q 716 1275 716 1634 
L 716 2284 
Q 716 3134 1119 3628 
Q 1434 4016 1916 4016 
Q 2150 4016 2353 3923 
Q 2556 3831 2700 3666 
Q 2794 3559 2900 3331 
Q 3006 3103 3056 2916 
Q 3125 2647 3125 2284 
z
M 2863 2250 
Q 2863 2622 2758 2942 
Q 2653 3263 2522 3453 
Q 2444 3563 2319 3641 
Q 2141 3750 1919 3750 
Q 1478 3750 1228 3300 
Q 978 2850 978 2250 
L 978 1672 
Q 978 1300 1083 978 
Q 1188 656 1322 466 
Q 1397 359 1522 281 
Q 1700 169 1925 169 
Q 2363 169 2613 620 
Q 2863 1072 2863 1672 
L 2863 2250 
z
" transform="scale(0.015625)"/>
        <path id="CourierNewPSMT-2e" d="M 1866 753 
L 1978 753 
Q 2153 753 2278 629 
Q 2403 506 2403 331 
Q 2403 150 2276 28 
Q 2150 -94 1978 -94 
L 1866 -94 
Q 1691 -94 1566 29 
Q 1441 153 1441 328 
Q 1441 509 1567 631 
Q 1694 753 1866 753 
z
" transform="scale(0.015625)"/>
        <path id="CourierNewPSMT-33" d="M 2459 2134 
Q 2822 1972 3012 1689 
Q 3203 1406 3203 1100 
Q 3203 628 2820 267 
Q 2438 -94 1863 -94 
Q 1525 -94 1162 50 
Q 800 194 656 344 
Q 609 394 609 450 
Q 609 500 645 537 
Q 681 575 731 575 
Q 781 575 844 528 
Q 1328 169 1869 169 
Q 2325 169 2633 455 
Q 2941 741 2941 1091 
Q 2941 1325 2789 1550 
Q 2638 1775 2353 1904 
Q 2069 2034 1778 2034 
Q 1684 2034 1643 2070 
Q 1603 2106 1603 2166 
Q 1603 2222 1642 2259 
Q 1681 2297 1759 2297 
L 1984 2294 
Q 2338 2294 2567 2509 
Q 2797 2725 2797 3009 
Q 2797 3303 2556 3528 
Q 2316 3753 1928 3753 
Q 1656 3753 1428 3659 
Q 1200 3566 1063 3403 
Q 1013 3341 986 3327 
Q 959 3313 925 3313 
Q 872 3313 834 3348 
Q 797 3384 797 3434 
Q 797 3559 1069 3750 
Q 1447 4016 1928 4016 
Q 2425 4016 2744 3717 
Q 3063 3419 3063 3006 
Q 3063 2744 2909 2509 
Q 2756 2275 2459 2134 
z
" transform="scale(0.015625)"/>
       </defs>
       <use xlink:href="#CourierNewPSMT-30"/>
       <use xlink:href="#CourierNewPSMT-2e" transform="translate(60.009766 0)"/>
       <use xlink:href="#CourierNewPSMT-33" transform="translate(120.019531 0)"/>
      </g>
     </g>
    </g>
    <g id="xtick_2">
     <g id="line2d_3">
      <path d="M 234.255682 640.8 
L 234.255682 86.4 
" clip-path="url(#p6f26041b15)" style="fill: none; stroke: #b0b0b0; stroke-opacity: 0.25; stroke-width: 0.75; stroke-linecap: square"/>
     </g>
     <g id="line2d_4">
      <g>
       <use xlink:href="#mc24afe8321" x="234.255682" y="640.8" style="stroke: #000000; stroke-width: 0.8"/>
      </g>
     </g>
     <g id="text_2">
      <!-- 0.4 -->
      <g transform="translate(216.250994 660.05625) scale(0.2 -0.2)">
       <defs>
        <path id="CourierNewPSMT-34" d="M 2409 1097 
L 669 1097 
L 669 1400 
L 2128 3922 
L 2675 3922 
L 2675 1359 
L 2894 1359 
Q 2991 1359 3031 1323 
Q 3072 1288 3072 1228 
Q 3072 1172 3031 1134 
Q 2991 1097 2894 1097 
L 2675 1097 
L 2675 263 
L 2894 263 
Q 2991 263 3031 227 
Q 3072 191 3072 131 
Q 3072 75 3031 37 
Q 2991 0 2894 0 
L 1919 0 
Q 1822 0 1781 37 
Q 1741 75 1741 131 
Q 1741 191 1781 227 
Q 1822 263 1919 263 
L 2409 263 
L 2409 1097 
z
M 2409 1359 
L 2409 3656 
L 2272 3656 
L 944 1359 
L 2409 1359 
z
" transform="scale(0.015625)"/>
       </defs>
       <use xlink:href="#CourierNewPSMT-30"/>
       <use xlink:href="#CourierNewPSMT-2e" transform="translate(60.009766 0)"/>
       <use xlink:href="#CourierNewPSMT-34" transform="translate(120.019531 0)"/>
      </g>
     </g>
    </g>
    <g id="xtick_3">
     <g id="line2d_5">
      <path d="M 313.517045 640.8 
L 313.517045 86.4 
" clip-path="url(#p6f26041b15)" style="fill: none; stroke: #b0b0b0; stroke-opacity: 0.25; stroke-width: 0.75; stroke-linecap: square"/>
     </g>
     <g id="line2d_6">
      <g>
       <use xlink:href="#mc24afe8321" x="313.517045" y="640.8" style="stroke: #000000; stroke-width: 0.8"/>
      </g>
     </g>
     <g id="text_3">
      <!-- 0.5 -->
      <g transform="translate(295.512358 660.05625) scale(0.2 -0.2)">
       <defs>
        <path id="CourierNewPSMT-35" d="M 1197 3656 
L 1197 2372 
Q 1428 2469 1640 2517 
Q 1853 2566 2044 2566 
Q 2538 2566 2870 2219 
Q 3203 1872 3203 1306 
Q 3203 681 2828 293 
Q 2453 -94 1891 -94 
Q 1519 -94 1175 72 
Q 931 188 731 359 
Q 613 463 613 531 
Q 613 588 650 627 
Q 688 666 738 666 
Q 791 666 850 609 
Q 1322 169 1878 169 
Q 2338 169 2638 483 
Q 2938 797 2938 1319 
Q 2938 1763 2678 2033 
Q 2419 2303 2019 2303 
Q 1609 2303 1200 2088 
Q 1100 2038 1059 2038 
Q 1003 2038 968 2075 
Q 934 2113 934 2181 
L 934 3922 
L 2766 3922 
Q 2859 3922 2900 3884 
Q 2941 3847 2941 3788 
Q 2941 3731 2900 3693 
Q 2859 3656 2766 3656 
L 1197 3656 
z
" transform="scale(0.015625)"/>
       </defs>
       <use xlink:href="#CourierNewPSMT-30"/>
       <use xlink:href="#CourierNewPSMT-2e" transform="translate(60.009766 0)"/>
       <use xlink:href="#CourierNewPSMT-35" transform="translate(120.019531 0)"/>
      </g>
     </g>
    </g>
    <g id="xtick_4">
     <g id="line2d_7">
      <path d="M 392.778409 640.8 
L 392.778409 86.4 
" clip-path="url(#p6f26041b15)" style="fill: none; stroke: #b0b0b0; stroke-opacity: 0.25; stroke-width: 0.75; stroke-linecap: square"/>
     </g>
     <g id="line2d_8">
      <g>
       <use xlink:href="#mc24afe8321" x="392.778409" y="640.8" style="stroke: #000000; stroke-width: 0.8"/>
      </g>
     </g>
     <g id="text_4">
      <!-- 0.6 -->
      <g transform="translate(374.773722 660.05625) scale(0.2 -0.2)">
       <defs>
        <path id="CourierNewPSMT-36" d="M 1138 1659 
Q 1381 2019 1639 2191 
Q 1897 2363 2213 2363 
Q 2631 2363 2956 2014 
Q 3281 1666 3281 1153 
Q 3281 684 2984 295 
Q 2688 -94 2166 -94 
Q 1825 -94 1529 115 
Q 1234 325 1066 759 
Q 856 1300 856 1956 
Q 856 2450 1053 2875 
Q 1203 3203 1453 3451 
Q 1703 3700 2036 3858 
Q 2369 4016 2756 4016 
Q 3019 4016 3194 3909 
Q 3269 3863 3269 3784 
Q 3269 3728 3234 3692 
Q 3200 3656 3147 3656 
Q 3106 3656 3050 3688 
Q 2922 3750 2731 3750 
Q 2122 3750 1620 3226 
Q 1119 2703 1119 1981 
Q 1119 1878 1138 1659 
z
M 1197 1225 
Q 1316 656 1570 412 
Q 1825 169 2172 169 
Q 2522 169 2770 442 
Q 3019 716 3019 1153 
Q 3019 1563 2769 1831 
Q 2519 2100 2203 2100 
Q 1900 2100 1619 1841 
Q 1431 1669 1197 1225 
z
" transform="scale(0.015625)"/>
       </defs>
       <use xlink:href="#CourierNewPSMT-30"/>
       <use xlink:href="#CourierNewPSMT-2e" transform="translate(60.009766 0)"/>
       <use xlink:href="#CourierNewPSMT-36" transform="translate(120.019531 0)"/>
      </g>
     </g>
    </g>
    <g id="xtick_5">
     <g id="line2d_9">
      <path d="M 472.039773 640.8 
L 472.039773 86.4 
" clip-path="url(#p6f26041b15)" style="fill: none; stroke: #b0b0b0; stroke-opacity: 0.25; stroke-width: 0.75; stroke-linecap: square"/>
     </g>
     <g id="line2d_10">
      <g>
       <use xlink:href="#mc24afe8321" x="472.039773" y="640.8" style="stroke: #000000; stroke-width: 0.8"/>
      </g>
     </g>
     <g id="text_5">
      <!-- 0.7 -->
      <g transform="translate(454.035085 660.05625) scale(0.2 -0.2)">
       <defs>
        <path id="CourierNewPSMT-37" d="M 2803 3538 
L 2803 3656 
L 922 3656 
L 922 3425 
Q 922 3331 886 3290 
Q 850 3250 791 3250 
Q 734 3250 696 3290 
Q 659 3331 659 3425 
L 659 3922 
L 3069 3922 
L 3069 3503 
L 2013 128 
Q 1988 47 1953 20 
Q 1919 -6 1875 -6 
Q 1819 -6 1781 31 
Q 1744 69 1744 119 
Q 1744 150 1763 206 
L 2803 3538 
z
" transform="scale(0.015625)"/>
       </defs>
       <use xlink:href="#CourierNewPSMT-30"/>
       <use xlink:href="#CourierNewPSMT-2e" transform="translate(60.009766 0)"/>
       <use xlink:href="#CourierNewPSMT-37" transform="translate(120.019531 0)"/>
      </g>
     </g>
    </g>
    <g id="xtick_6">
     <g id="line2d_11">
      <path d="M 551.301136 640.8 
L 551.301136 86.4 
" clip-path="url(#p6f26041b15)" style="fill: none; stroke: #b0b0b0; stroke-opacity: 0.25; stroke-width: 0.75; stroke-linecap: square"/>
     </g>
     <g id="line2d_12">
      <g>
       <use xlink:href="#mc24afe8321" x="551.301136" y="640.8" style="stroke: #000000; stroke-width: 0.8"/>
      </g>
     </g>
     <g id="text_6">
      <!-- 0.8 -->
      <g transform="translate(533.296449 660.05625) scale(0.2 -0.2)">
       <defs>
        <path id="CourierNewPSMT-38" d="M 2459 2034 
Q 2788 1875 2955 1614 
Q 3122 1353 3122 1053 
Q 3122 588 2772 247 
Q 2422 -94 1922 -94 
Q 1422 -94 1072 247 
Q 722 588 722 1053 
Q 722 1350 889 1611 
Q 1056 1872 1388 2034 
Q 1100 2200 969 2378 
Q 788 2631 788 2938 
Q 788 3369 1120 3692 
Q 1453 4016 1922 4016 
Q 2394 4016 2725 3692 
Q 3056 3369 3056 2938 
Q 3056 2631 2875 2381 
Q 2747 2200 2459 2034 
z
M 2788 2928 
Q 2788 3266 2536 3508 
Q 2284 3750 1919 3750 
Q 1556 3750 1304 3506 
Q 1053 3263 1053 2931 
Q 1053 2625 1301 2395 
Q 1550 2166 1919 2166 
Q 2291 2166 2539 2395 
Q 2788 2625 2788 2928 
z
M 2859 1047 
Q 2859 1394 2590 1650 
Q 2322 1906 1922 1906 
Q 1522 1906 1253 1650 
Q 984 1394 984 1050 
Q 984 694 1254 431 
Q 1525 169 1922 169 
Q 2319 169 2589 431 
Q 2859 694 2859 1047 
z
" transform="scale(0.015625)"/>
       </defs>
       <use xlink:href="#CourierNewPSMT-30"/>
       <use xlink:href="#CourierNewPSMT-2e" transform="translate(60.009766 0)"/>
       <use xlink:href="#CourierNewPSMT-38" transform="translate(120.019531 0)"/>
      </g>
     </g>
    </g>
    <g id="xtick_7">
     <g id="line2d_13">
      <path d="M 630.5625 640.8 
L 630.5625 86.4 
" clip-path="url(#p6f26041b15)" style="fill: none; stroke: #b0b0b0; stroke-opacity: 0.25; stroke-width: 0.75; stroke-linecap: square"/>
     </g>
     <g id="line2d_14">
      <g>
       <use xlink:href="#mc24afe8321" x="630.5625" y="640.8" style="stroke: #000000; stroke-width: 0.8"/>
      </g>
     </g>
     <g id="text_7">
      <!-- 0.9 -->
      <g transform="translate(612.557813 660.05625) scale(0.2 -0.2)">
       <defs>
        <path id="CourierNewPSMT-39" d="M 2997 2219 
Q 2794 1859 2514 1678 
Q 2234 1497 1941 1497 
Q 1669 1497 1414 1653 
Q 1159 1809 1009 2111 
Q 859 2413 859 2744 
Q 859 3225 1157 3620 
Q 1456 4016 1956 4016 
Q 2313 4016 2606 3794 
Q 2900 3572 3063 3150 
Q 3272 2609 3272 1894 
Q 3272 1338 3094 969 
Q 2975 719 2745 484 
Q 2516 250 2228 103 
Q 1834 -94 1409 -94 
Q 1128 -94 950 13 
Q 869 63 869 138 
Q 869 191 906 227 
Q 944 263 997 263 
Q 1034 263 1106 228 
Q 1228 169 1388 169 
Q 2053 169 2531 648 
Q 3009 1128 3009 1850 
Q 3009 1981 2997 2219 
z
M 2947 2656 
Q 2781 3291 2536 3520 
Q 2291 3750 1963 3750 
Q 1628 3750 1375 3469 
Q 1122 3188 1122 2747 
Q 1122 2319 1375 2039 
Q 1628 1759 1947 1759 
Q 2131 1759 2311 1859 
Q 2491 1959 2650 2159 
Q 2753 2294 2947 2656 
z
" transform="scale(0.015625)"/>
       </defs>
       <use xlink:href="#CourierNewPSMT-30"/>
       <use xlink:href="#CourierNewPSMT-2e" transform="translate(60.009766 0)"/>
       <use xlink:href="#CourierNewPSMT-39" transform="translate(120.019531 0)"/>
      </g>
     </g>
    </g>
    <g id="xtick_8">
     <g id="line2d_15">
      <path d="M 91.585227 640.8 
L 91.585227 86.4 
" clip-path="url(#p6f26041b15)" style="fill: none; stroke: #b0b0b0; stroke-opacity: 0.15; stroke-width: 0.25; stroke-linecap: square"/>
     </g>
     <g id="line2d_16">
      <defs>
       <path id="mfb9bc37611" d="M 0 0 
L 0 2 
" style="stroke: #000000; stroke-width: 0.6"/>
      </defs>
      <g>
       <use xlink:href="#mfb9bc37611" x="91.585227" y="640.8" style="stroke: #000000; stroke-width: 0.6"/>
      </g>
     </g>
    </g>
    <g id="xtick_9">
     <g id="line2d_17">
      <path d="M 107.4375 640.8 
L 107.4375 86.4 
" clip-path="url(#p6f26041b15)" style="fill: none; stroke: #b0b0b0; stroke-opacity: 0.15; stroke-width: 0.25; stroke-linecap: square"/>
     </g>
     <g id="line2d_18">
      <g>
       <use xlink:href="#mfb9bc37611" x="107.4375" y="640.8" style="stroke: #000000; stroke-width: 0.6"/>
      </g>
     </g>
    </g>
    <g id="xtick_10">
     <g id="line2d_19">
      <path d="M 123.289773 640.8 
L 123.289773 86.4 
" clip-path="url(#p6f26041b15)" style="fill: none; stroke: #b0b0b0; stroke-opacity: 0.15; stroke-width: 0.25; stroke-linecap: square"/>
     </g>
     <g id="line2d_20">
      <g>
       <use xlink:href="#mfb9bc37611" x="123.289773" y="640.8" style="stroke: #000000; stroke-width: 0.6"/>
      </g>
     </g>
    </g>
    <g id="xtick_11">
     <g id="line2d_21">
      <path d="M 139.142045 640.8 
L 139.142045 86.4 
" clip-path="url(#p6f26041b15)" style="fill: none; stroke: #b0b0b0; stroke-opacity: 0.15; stroke-width: 0.25; stroke-linecap: square"/>
     </g>
     <g id="line2d_22">
      <g>
       <use xlink:href="#mfb9bc37611" x="139.142045" y="640.8" style="stroke: #000000; stroke-width: 0.6"/>
      </g>
     </g>
    </g>
    <g id="xtick_12">
     <g id="line2d_23">
      <path d="M 170.846591 640.8 
L 170.846591 86.4 
" clip-path="url(#p6f26041b15)" style="fill: none; stroke: #b0b0b0; stroke-opacity: 0.15; stroke-width: 0.25; stroke-linecap: square"/>
     </g>
     <g id="line2d_24">
      <g>
       <use xlink:href="#mfb9bc37611" x="170.846591" y="640.8" style="stroke: #000000; stroke-width: 0.6"/>
      </g>
     </g>
    </g>
    <g id="xtick_13">
     <g id="line2d_25">
      <path d="M 186.698864 640.8 
L 186.698864 86.4 
" clip-path="url(#p6f26041b15)" style="fill: none; stroke: #b0b0b0; stroke-opacity: 0.15; stroke-width: 0.25; stroke-linecap: square"/>
     </g>
     <g id="line2d_26">
      <g>
       <use xlink:href="#mfb9bc37611" x="186.698864" y="640.8" style="stroke: #000000; stroke-width: 0.6"/>
      </g>
     </g>
    </g>
    <g id="xtick_14">
     <g id="line2d_27">
      <path d="M 202.551136 640.8 
L 202.551136 86.4 
" clip-path="url(#p6f26041b15)" style="fill: none; stroke: #b0b0b0; stroke-opacity: 0.15; stroke-width: 0.25; stroke-linecap: square"/>
     </g>
     <g id="line2d_28">
      <g>
       <use xlink:href="#mfb9bc37611" x="202.551136" y="640.8" style="stroke: #000000; stroke-width: 0.6"/>
      </g>
     </g>
    </g>
    <g id="xtick_15">
     <g id="line2d_29">
      <path d="M 218.403409 640.8 
L 218.403409 86.4 
" clip-path="url(#p6f26041b15)" style="fill: none; stroke: #b0b0b0; stroke-opacity: 0.15; stroke-width: 0.25; stroke-linecap: square"/>
     </g>
     <g id="line2d_30">
      <g>
       <use xlink:href="#mfb9bc37611" x="218.403409" y="640.8" style="stroke: #000000; stroke-width: 0.6"/>
      </g>
     </g>
    </g>
    <g id="xtick_16">
     <g id="line2d_31">
      <path d="M 250.107955 640.8 
L 250.107955 86.4 
" clip-path="url(#p6f26041b15)" style="fill: none; stroke: #b0b0b0; stroke-opacity: 0.15; stroke-width: 0.25; stroke-linecap: square"/>
     </g>
     <g id="line2d_32">
      <g>
       <use xlink:href="#mfb9bc37611" x="250.107955" y="640.8" style="stroke: #000000; stroke-width: 0.6"/>
      </g>
     </g>
    </g>
    <g id="xtick_17">
     <g id="line2d_33">
      <path d="M 265.960227 640.8 
L 265.960227 86.4 
" clip-path="url(#p6f26041b15)" style="fill: none; stroke: #b0b0b0; stroke-opacity: 0.15; stroke-width: 0.25; stroke-linecap: square"/>
     </g>
     <g id="line2d_34">
      <g>
       <use xlink:href="#mfb9bc37611" x="265.960227" y="640.8" style="stroke: #000000; stroke-width: 0.6"/>
      </g>
     </g>
    </g>
    <g id="xtick_18">
     <g id="line2d_35">
      <path d="M 281.8125 640.8 
L 281.8125 86.4 
" clip-path="url(#p6f26041b15)" style="fill: none; stroke: #b0b0b0; stroke-opacity: 0.15; stroke-width: 0.25; stroke-linecap: square"/>
     </g>
     <g id="line2d_36">
      <g>
       <use xlink:href="#mfb9bc37611" x="281.8125" y="640.8" style="stroke: #000000; stroke-width: 0.6"/>
      </g>
     </g>
    </g>
    <g id="xtick_19">
     <g id="line2d_37">
      <path d="M 297.664773 640.8 
L 297.664773 86.4 
" clip-path="url(#p6f26041b15)" style="fill: none; stroke: #b0b0b0; stroke-opacity: 0.15; stroke-width: 0.25; stroke-linecap: square"/>
     </g>
     <g id="line2d_38">
      <g>
       <use xlink:href="#mfb9bc37611" x="297.664773" y="640.8" style="stroke: #000000; stroke-width: 0.6"/>
      </g>
     </g>
    </g>
    <g id="xtick_20">
     <g id="line2d_39">
      <path d="M 329.369318 640.8 
L 329.369318 86.4 
" clip-path="url(#p6f26041b15)" style="fill: none; stroke: #b0b0b0; stroke-opacity: 0.15; stroke-width: 0.25; stroke-linecap: square"/>
     </g>
     <g id="line2d_40">
      <g>
       <use xlink:href="#mfb9bc37611" x="329.369318" y="640.8" style="stroke: #000000; stroke-width: 0.6"/>
      </g>
     </g>
    </g>
    <g id="xtick_21">
     <g id="line2d_41">
      <path d="M 345.221591 640.8 
L 345.221591 86.4 
" clip-path="url(#p6f26041b15)" style="fill: none; stroke: #b0b0b0; stroke-opacity: 0.15; stroke-width: 0.25; stroke-linecap: square"/>
     </g>
     <g id="line2d_42">
      <g>
       <use xlink:href="#mfb9bc37611" x="345.221591" y="640.8" style="stroke: #000000; stroke-width: 0.6"/>
      </g>
     </g>
    </g>
    <g id="xtick_22">
     <g id="line2d_43">
      <path d="M 361.073864 640.8 
L 361.073864 86.4 
" clip-path="url(#p6f26041b15)" style="fill: none; stroke: #b0b0b0; stroke-opacity: 0.15; stroke-width: 0.25; stroke-linecap: square"/>
     </g>
     <g id="line2d_44">
      <g>
       <use xlink:href="#mfb9bc37611" x="361.073864" y="640.8" style="stroke: #000000; stroke-width: 0.6"/>
      </g>
     </g>
    </g>
    <g id="xtick_23">
     <g id="line2d_45">
      <path d="M 376.926136 640.8 
L 376.926136 86.4 
" clip-path="url(#p6f26041b15)" style="fill: none; stroke: #b0b0b0; stroke-opacity: 0.15; stroke-width: 0.25; stroke-linecap: square"/>
     </g>
     <g id="line2d_46">
      <g>
       <use xlink:href="#mfb9bc37611" x="376.926136" y="640.8" style="stroke: #000000; stroke-width: 0.6"/>
      </g>
     </g>
    </g>
    <g id="xtick_24">
     <g id="line2d_47">
      <path d="M 408.630682 640.8 
L 408.630682 86.4 
" clip-path="url(#p6f26041b15)" style="fill: none; stroke: #b0b0b0; stroke-opacity: 0.15; stroke-width: 0.25; stroke-linecap: square"/>
     </g>
     <g id="line2d_48">
      <g>
       <use xlink:href="#mfb9bc37611" x="408.630682" y="640.8" style="stroke: #000000; stroke-width: 0.6"/>
      </g>
     </g>
    </g>
    <g id="xtick_25">
     <g id="line2d_49">
      <path d="M 424.482955 640.8 
L 424.482955 86.4 
" clip-path="url(#p6f26041b15)" style="fill: none; stroke: #b0b0b0; stroke-opacity: 0.15; stroke-width: 0.25; stroke-linecap: square"/>
     </g>
     <g id="line2d_50">
      <g>
       <use xlink:href="#mfb9bc37611" x="424.482955" y="640.8" style="stroke: #000000; stroke-width: 0.6"/>
      </g>
     </g>
    </g>
    <g id="xtick_26">
     <g id="line2d_51">
      <path d="M 440.335227 640.8 
L 440.335227 86.4 
" clip-path="url(#p6f26041b15)" style="fill: none; stroke: #b0b0b0; stroke-opacity: 0.15; stroke-width: 0.25; stroke-linecap: square"/>
     </g>
     <g id="line2d_52">
      <g>
       <use xlink:href="#mfb9bc37611" x="440.335227" y="640.8" style="stroke: #000000; stroke-width: 0.6"/>
      </g>
     </g>
    </g>
    <g id="xtick_27">
     <g id="line2d_53">
      <path d="M 456.1875 640.8 
L 456.1875 86.4 
" clip-path="url(#p6f26041b15)" style="fill: none; stroke: #b0b0b0; stroke-opacity: 0.15; stroke-width: 0.25; stroke-linecap: square"/>
     </g>
     <g id="line2d_54">
      <g>
       <use xlink:href="#mfb9bc37611" x="456.1875" y="640.8" style="stroke: #000000; stroke-width: 0.6"/>
      </g>
     </g>
    </g>
    <g id="xtick_28">
     <g id="line2d_55">
      <path d="M 487.892045 640.8 
L 487.892045 86.4 
" clip-path="url(#p6f26041b15)" style="fill: none; stroke: #b0b0b0; stroke-opacity: 0.15; stroke-width: 0.25; stroke-linecap: square"/>
     </g>
     <g id="line2d_56">
      <g>
       <use xlink:href="#mfb9bc37611" x="487.892045" y="640.8" style="stroke: #000000; stroke-width: 0.6"/>
      </g>
     </g>
    </g>
    <g id="xtick_29">
     <g id="line2d_57">
      <path d="M 503.744318 640.8 
L 503.744318 86.4 
" clip-path="url(#p6f26041b15)" style="fill: none; stroke: #b0b0b0; stroke-opacity: 0.15; stroke-width: 0.25; stroke-linecap: square"/>
     </g>
     <g id="line2d_58">
      <g>
       <use xlink:href="#mfb9bc37611" x="503.744318" y="640.8" style="stroke: #000000; stroke-width: 0.6"/>
      </g>
     </g>
    </g>
    <g id="xtick_30">
     <g id="line2d_59">
      <path d="M 519.596591 640.8 
L 519.596591 86.4 
" clip-path="url(#p6f26041b15)" style="fill: none; stroke: #b0b0b0; stroke-opacity: 0.15; stroke-width: 0.25; stroke-linecap: square"/>
     </g>
     <g id="line2d_60">
      <g>
       <use xlink:href="#mfb9bc37611" x="519.596591" y="640.8" style="stroke: #000000; stroke-width: 0.6"/>
      </g>
     </g>
    </g>
    <g id="xtick_31">
     <g id="line2d_61">
      <path d="M 535.448864 640.8 
L 535.448864 86.4 
" clip-path="url(#p6f26041b15)" style="fill: none; stroke: #b0b0b0; stroke-opacity: 0.15; stroke-width: 0.25; stroke-linecap: square"/>
     </g>
     <g id="line2d_62">
      <g>
       <use xlink:href="#mfb9bc37611" x="535.448864" y="640.8" style="stroke: #000000; stroke-width: 0.6"/>
      </g>
     </g>
    </g>
    <g id="xtick_32">
     <g id="line2d_63">
      <path d="M 567.153409 640.8 
L 567.153409 86.4 
" clip-path="url(#p6f26041b15)" style="fill: none; stroke: #b0b0b0; stroke-opacity: 0.15; stroke-width: 0.25; stroke-linecap: square"/>
     </g>
     <g id="line2d_64">
      <g>
       <use xlink:href="#mfb9bc37611" x="567.153409" y="640.8" style="stroke: #000000; stroke-width: 0.6"/>
      </g>
     </g>
    </g>
    <g id="xtick_33">
     <g id="line2d_65">
      <path d="M 583.005682 640.8 
L 583.005682 86.4 
" clip-path="url(#p6f26041b15)" style="fill: none; stroke: #b0b0b0; stroke-opacity: 0.15; stroke-width: 0.25; stroke-linecap: square"/>
     </g>
     <g id="line2d_66">
      <g>
       <use xlink:href="#mfb9bc37611" x="583.005682" y="640.8" style="stroke: #000000; stroke-width: 0.6"/>
      </g>
     </g>
    </g>
    <g id="xtick_34">
     <g id="line2d_67">
      <path d="M 598.857955 640.8 
L 598.857955 86.4 
" clip-path="url(#p6f26041b15)" style="fill: none; stroke: #b0b0b0; stroke-opacity: 0.15; stroke-width: 0.25; stroke-linecap: square"/>
     </g>
     <g id="line2d_68">
      <g>
       <use xlink:href="#mfb9bc37611" x="598.857955" y="640.8" style="stroke: #000000; stroke-width: 0.6"/>
      </g>
     </g>
    </g>
    <g id="xtick_35">
     <g id="line2d_69">
      <path d="M 614.710227 640.8 
L 614.710227 86.4 
" clip-path="url(#p6f26041b15)" style="fill: none; stroke: #b0b0b0; stroke-opacity: 0.15; stroke-width: 0.25; stroke-linecap: square"/>
     </g>
     <g id="line2d_70">
      <g>
       <use xlink:href="#mfb9bc37611" x="614.710227" y="640.8" style="stroke: #000000; stroke-width: 0.6"/>
      </g>
     </g>
    </g>
    <g id="xtick_36">
     <g id="line2d_71">
      <path d="M 646.414773 640.8 
L 646.414773 86.4 
" clip-path="url(#p6f26041b15)" style="fill: none; stroke: #b0b0b0; stroke-opacity: 0.15; stroke-width: 0.25; stroke-linecap: square"/>
     </g>
     <g id="line2d_72">
      <g>
       <use xlink:href="#mfb9bc37611" x="646.414773" y="640.8" style="stroke: #000000; stroke-width: 0.6"/>
      </g>
     </g>
    </g>
    <g id="text_8">
     <!-- Difficulty -->
     <g transform="translate(308.984375 680.490625) scale(0.2 -0.2)">
      <defs>
       <path id="CourierNewPSMT-44" d="M 891 263 
L 891 3394 
L 669 3394 
Q 575 3394 534 3430 
Q 494 3466 494 3525 
Q 494 3584 534 3620 
Q 575 3656 669 3656 
L 2081 3656 
Q 2413 3656 2686 3518 
Q 2959 3381 3103 3206 
Q 3350 2909 3478 2578 
Q 3569 2338 3569 2009 
L 3569 1647 
Q 3569 1244 3391 866 
Q 3213 488 2797 206 
Q 2488 0 2081 0 
L 669 0 
Q 575 0 534 37 
Q 494 75 494 131 
Q 494 191 534 227 
Q 575 263 669 263 
L 891 263 
z
M 1153 263 
L 2106 263 
Q 2438 263 2727 478 
Q 3016 694 3161 995 
Q 3306 1297 3306 1591 
L 3306 2066 
Q 3306 2309 3228 2500 
Q 3116 2778 2909 3028 
Q 2797 3166 2578 3280 
Q 2359 3394 2106 3394 
L 1153 3394 
L 1153 263 
z
" transform="scale(0.015625)"/>
       <path id="CourierNewPSMT-69" d="M 2050 4053 
L 2050 3375 
L 1663 3375 
L 1663 4053 
L 2050 4053 
z
M 2059 2706 
L 2059 263 
L 3091 263 
Q 3188 263 3228 227 
Q 3269 191 3269 131 
Q 3269 75 3228 37 
Q 3188 0 3091 0 
L 766 0 
Q 672 0 631 37 
Q 591 75 591 131 
Q 591 191 631 227 
Q 672 263 766 263 
L 1797 263 
L 1797 2441 
L 1031 2441 
Q 938 2441 895 2478 
Q 853 2516 853 2572 
Q 853 2631 893 2668 
Q 934 2706 1031 2706 
L 2059 2706 
z
" transform="scale(0.015625)"/>
       <path id="CourierNewPSMT-66" d="M 1747 2441 
L 1747 263 
L 2900 263 
Q 2994 263 3034 227 
Q 3075 191 3075 131 
Q 3075 75 3034 37 
Q 2994 0 2900 0 
L 847 0 
Q 753 0 712 37 
Q 672 75 672 131 
Q 672 191 712 227 
Q 753 263 847 263 
L 1481 263 
L 1481 2441 
L 913 2441 
Q 819 2441 778 2478 
Q 738 2516 738 2575 
Q 738 2631 778 2668 
Q 819 2706 913 2706 
L 1481 2706 
L 1481 3103 
Q 1481 3434 1750 3678 
Q 2019 3922 2463 3922 
Q 2834 3922 3256 3853 
Q 3416 3828 3448 3793 
Q 3481 3759 3481 3703 
Q 3481 3647 3443 3611 
Q 3406 3575 3344 3575 
Q 3319 3575 3259 3584 
Q 2788 3656 2463 3656 
Q 2119 3656 1933 3487 
Q 1747 3319 1747 3103 
L 1747 2706 
L 2975 2706 
Q 3069 2706 3109 2668 
Q 3150 2631 3150 2572 
Q 3150 2516 3109 2478 
Q 3069 2441 2975 2441 
L 1747 2441 
z
" transform="scale(0.015625)"/>
       <path id="CourierNewPSMT-63" d="M 3016 2441 
L 3016 2528 
Q 3016 2625 3053 2665 
Q 3091 2706 3147 2706 
Q 3206 2706 3243 2665 
Q 3281 2625 3281 2528 
L 3281 1934 
Q 3278 1838 3242 1797 
Q 3206 1756 3147 1756 
Q 3094 1756 3058 1792 
Q 3022 1828 3016 1913 
Q 2997 2134 2723 2334 
Q 2450 2534 1988 2534 
Q 1403 2534 1100 2168 
Q 797 1803 797 1331 
Q 797 822 1131 490 
Q 1466 159 1997 159 
Q 2303 159 2620 271 
Q 2938 384 3194 634 
Q 3259 697 3309 697 
Q 3363 697 3398 661 
Q 3434 625 3434 572 
Q 3434 438 3119 231 
Q 2609 -103 1984 -103 
Q 1350 -103 942 301 
Q 534 706 534 1328 
Q 534 1963 951 2381 
Q 1369 2800 2003 2800 
Q 2606 2800 3016 2441 
z
" transform="scale(0.015625)"/>
       <path id="CourierNewPSMT-75" d="M 2819 0 
L 2819 384 
Q 2281 -103 1656 -103 
Q 1272 -103 1072 106 
Q 813 381 813 747 
L 813 2441 
L 459 2441 
Q 366 2441 325 2478 
Q 284 2516 284 2575 
Q 284 2631 325 2668 
Q 366 2706 459 2706 
L 1075 2706 
L 1075 747 
Q 1075 491 1237 325 
Q 1400 159 1644 159 
Q 2284 159 2819 747 
L 2819 2441 
L 2334 2441 
Q 2241 2441 2200 2478 
Q 2159 2516 2159 2575 
Q 2159 2631 2200 2668 
Q 2241 2706 2334 2706 
L 3081 2706 
L 3081 263 
L 3303 263 
Q 3397 263 3437 227 
Q 3478 191 3478 131 
Q 3478 75 3437 37 
Q 3397 0 3303 0 
L 2819 0 
z
" transform="scale(0.015625)"/>
       <path id="CourierNewPSMT-6c" d="M 2053 3922 
L 2053 263 
L 3084 263 
Q 3181 263 3222 227 
Q 3263 191 3263 131 
Q 3263 75 3222 37 
Q 3181 0 3084 0 
L 759 0 
Q 666 0 625 37 
Q 584 75 584 131 
Q 584 191 625 227 
Q 666 263 759 263 
L 1791 263 
L 1791 3656 
L 1034 3656 
Q 941 3656 898 3693 
Q 856 3731 856 3791 
Q 856 3847 897 3884 
Q 938 3922 1034 3922 
L 2053 3922 
z
" transform="scale(0.015625)"/>
       <path id="CourierNewPSMT-74" d="M 1381 2706 
L 2806 2706 
Q 2900 2706 2940 2668 
Q 2981 2631 2981 2572 
Q 2981 2516 2940 2478 
Q 2900 2441 2806 2441 
L 1381 2441 
L 1381 694 
Q 1381 466 1564 312 
Q 1747 159 2100 159 
Q 2366 159 2675 239 
Q 2984 319 3156 419 
Q 3219 459 3259 459 
Q 3309 459 3346 420 
Q 3384 381 3384 328 
Q 3384 281 3344 241 
Q 3244 138 2858 17 
Q 2472 -103 2119 -103 
Q 1659 -103 1387 112 
Q 1116 328 1116 694 
L 1116 2441 
L 631 2441 
Q 538 2441 497 2478 
Q 456 2516 456 2575 
Q 456 2631 497 2668 
Q 538 2706 631 2706 
L 1116 2706 
L 1116 3481 
Q 1116 3575 1153 3615 
Q 1191 3656 1247 3656 
Q 1306 3656 1343 3615 
Q 1381 3575 1381 3481 
L 1381 2706 
z
" transform="scale(0.015625)"/>
       <path id="CourierNewPSMT-79" d="M 1938 0 
L 719 2441 
L 641 2441 
Q 547 2441 506 2478 
Q 466 2516 466 2572 
Q 466 2613 486 2645 
Q 506 2678 539 2692 
Q 572 2706 641 2706 
L 1359 2706 
Q 1453 2706 1493 2668 
Q 1534 2631 1534 2572 
Q 1534 2516 1493 2478 
Q 1453 2441 1359 2441 
L 1006 2441 
L 2078 288 
L 3134 2441 
L 2781 2441 
Q 2688 2441 2647 2478 
Q 2606 2516 2606 2575 
Q 2606 2631 2647 2668 
Q 2688 2706 2781 2706 
L 3497 2706 
Q 3594 2706 3634 2668 
Q 3675 2631 3675 2572 
Q 3675 2531 3650 2497 
Q 3625 2463 3594 2452 
Q 3563 2441 3419 2441 
L 1756 -944 
L 2166 -944 
Q 2259 -944 2300 -980 
Q 2341 -1016 2341 -1075 
Q 2341 -1131 2300 -1168 
Q 2259 -1206 2166 -1206 
L 653 -1206 
Q 559 -1206 518 -1170 
Q 478 -1134 478 -1075 
Q 478 -1016 518 -980 
Q 559 -944 653 -944 
L 1475 -944 
L 1938 0 
z
" transform="scale(0.015625)"/>
      </defs>
      <use xlink:href="#CourierNewPSMT-44"/>
      <use xlink:href="#CourierNewPSMT-69" transform="translate(60.009766 0)"/>
      <use xlink:href="#CourierNewPSMT-66" transform="translate(120.019531 0)"/>
      <use xlink:href="#CourierNewPSMT-66" transform="translate(180.029297 0)"/>
      <use xlink:href="#CourierNewPSMT-69" transform="translate(240.039062 0)"/>
      <use xlink:href="#CourierNewPSMT-63" transform="translate(300.048828 0)"/>
      <use xlink:href="#CourierNewPSMT-75" transform="translate(360.058594 0)"/>
      <use xlink:href="#CourierNewPSMT-6c" transform="translate(420.068359 0)"/>
      <use xlink:href="#CourierNewPSMT-74" transform="translate(480.078125 0)"/>
      <use xlink:href="#CourierNewPSMT-79" transform="translate(540.087891 0)"/>
     </g>
    </g>
   </g>
   <g id="matplotlib.axis_2">
    <g id="ytick_1">
     <g id="line2d_73">
      <path d="M 90 640.8 
L 648 640.8 
" clip-path="url(#p6f26041b15)" style="fill: none; stroke: #b0b0b0; stroke-opacity: 0.25; stroke-width: 0.75; stroke-linecap: square"/>
     </g>
     <g id="line2d_74">
      <defs>
       <path id="m63dc715df6" d="M 0 0 
L -3.5 0 
" style="stroke: #000000; stroke-width: 0.8"/>
      </defs>
      <g>
       <use xlink:href="#m63dc715df6" x="90" y="640.8" style="stroke: #000000; stroke-width: 0.8"/>
      </g>
     </g>
     <g id="text_9">
      <!-- 0 -->
      <g transform="translate(70.996875 646.928125) scale(0.2 -0.2)">
       <use xlink:href="#CourierNewPSMT-30"/>
      </g>
     </g>
    </g>
    <g id="ytick_2">
     <g id="line2d_75">
      <path d="M 90 523.466667 
L 648 523.466667 
" clip-path="url(#p6f26041b15)" style="fill: none; stroke: #b0b0b0; stroke-opacity: 0.25; stroke-width: 0.75; stroke-linecap: square"/>
     </g>
     <g id="line2d_76">
      <g>
       <use xlink:href="#m63dc715df6" x="90" y="523.466667" style="stroke: #000000; stroke-width: 0.8"/>
      </g>
     </g>
     <g id="text_10">
      <!-- 2 -->
      <g transform="translate(70.996875 529.594792) scale(0.2 -0.2)">
       <defs>
        <path id="CourierNewPSMT-32" d="M 791 263 
L 2806 263 
L 2806 366 
Q 2806 459 2843 500 
Q 2881 541 2941 541 
Q 2997 541 3034 500 
Q 3072 459 3072 366 
L 3072 0 
L 534 0 
L 534 388 
Q 1334 1106 2091 1850 
Q 2444 2197 2575 2359 
Q 2706 2522 2754 2645 
Q 2803 2769 2803 2894 
Q 2803 3231 2531 3490 
Q 2259 3750 1875 3750 
Q 1531 3750 1265 3553 
Q 1000 3356 922 3066 
Q 903 2991 875 2969 
Q 838 2938 788 2938 
Q 734 2938 698 2973 
Q 663 3009 663 3059 
Q 663 3209 827 3465 
Q 991 3722 1280 3869 
Q 1569 4016 1872 4016 
Q 2363 4016 2716 3675 
Q 3069 3334 3069 2903 
Q 3069 2722 3009 2570 
Q 2950 2419 2808 2239 
Q 2666 2059 2297 1697 
Q 1372 784 791 281 
L 791 263 
z
" transform="scale(0.015625)"/>
       </defs>
       <use xlink:href="#CourierNewPSMT-32"/>
      </g>
     </g>
    </g>
    <g id="ytick_3">
     <g id="line2d_77">
      <path d="M 90 406.133333 
L 648 406.133333 
" clip-path="url(#p6f26041b15)" style="fill: none; stroke: #b0b0b0; stroke-opacity: 0.25; stroke-width: 0.75; stroke-linecap: square"/>
     </g>
     <g id="line2d_78">
      <g>
       <use xlink:href="#m63dc715df6" x="90" y="406.133333" style="stroke: #000000; stroke-width: 0.8"/>
      </g>
     </g>
     <g id="text_11">
      <!-- 4 -->
      <g transform="translate(70.996875 412.261458) scale(0.2 -0.2)">
       <use xlink:href="#CourierNewPSMT-34"/>
      </g>
     </g>
    </g>
    <g id="ytick_4">
     <g id="line2d_79">
      <path d="M 90 288.8 
L 648 288.8 
" clip-path="url(#p6f26041b15)" style="fill: none; stroke: #b0b0b0; stroke-opacity: 0.25; stroke-width: 0.75; stroke-linecap: square"/>
     </g>
     <g id="line2d_80">
      <g>
       <use xlink:href="#m63dc715df6" x="90" y="288.8" style="stroke: #000000; stroke-width: 0.8"/>
      </g>
     </g>
     <g id="text_12">
      <!-- 6 -->
      <g transform="translate(70.996875 294.928125) scale(0.2 -0.2)">
       <use xlink:href="#CourierNewPSMT-36"/>
      </g>
     </g>
    </g>
    <g id="ytick_5">
     <g id="line2d_81">
      <path d="M 90 171.466667 
L 648 171.466667 
" clip-path="url(#p6f26041b15)" style="fill: none; stroke: #b0b0b0; stroke-opacity: 0.25; stroke-width: 0.75; stroke-linecap: square"/>
     </g>
     <g id="line2d_82">
      <g>
       <use xlink:href="#m63dc715df6" x="90" y="171.466667" style="stroke: #000000; stroke-width: 0.8"/>
      </g>
     </g>
     <g id="text_13">
      <!-- 8 -->
      <g transform="translate(70.996875 177.594792) scale(0.2 -0.2)">
       <use xlink:href="#CourierNewPSMT-38"/>
      </g>
     </g>
    </g>
    <g id="ytick_6">
     <g id="line2d_83">
      <path d="M 90 611.466667 
L 648 611.466667 
" clip-path="url(#p6f26041b15)" style="fill: none; stroke: #b0b0b0; stroke-opacity: 0.15; stroke-width: 0.25; stroke-linecap: square"/>
     </g>
     <g id="line2d_84">
      <defs>
       <path id="ma197144b6f" d="M 0 0 
L -2 0 
" style="stroke: #000000; stroke-width: 0.6"/>
      </defs>
      <g>
       <use xlink:href="#ma197144b6f" x="90" y="611.466667" style="stroke: #000000; stroke-width: 0.6"/>
      </g>
     </g>
    </g>
    <g id="ytick_7">
     <g id="line2d_85">
      <path d="M 90 582.133333 
L 648 582.133333 
" clip-path="url(#p6f26041b15)" style="fill: none; stroke: #b0b0b0; stroke-opacity: 0.15; stroke-width: 0.25; stroke-linecap: square"/>
     </g>
     <g id="line2d_86">
      <g>
       <use xlink:href="#ma197144b6f" x="90" y="582.133333" style="stroke: #000000; stroke-width: 0.6"/>
      </g>
     </g>
    </g>
    <g id="ytick_8">
     <g id="line2d_87">
      <path d="M 90 552.8 
L 648 552.8 
" clip-path="url(#p6f26041b15)" style="fill: none; stroke: #b0b0b0; stroke-opacity: 0.15; stroke-width: 0.25; stroke-linecap: square"/>
     </g>
     <g id="line2d_88">
      <g>
       <use xlink:href="#ma197144b6f" x="90" y="552.8" style="stroke: #000000; stroke-width: 0.6"/>
      </g>
     </g>
    </g>
    <g id="ytick_9">
     <g id="line2d_89">
      <path d="M 90 494.133333 
L 648 494.133333 
" clip-path="url(#p6f26041b15)" style="fill: none; stroke: #b0b0b0; stroke-opacity: 0.15; stroke-width: 0.25; stroke-linecap: square"/>
     </g>
     <g id="line2d_90">
      <g>
       <use xlink:href="#ma197144b6f" x="90" y="494.133333" style="stroke: #000000; stroke-width: 0.6"/>
      </g>
     </g>
    </g>
    <g id="ytick_10">
     <g id="line2d_91">
      <path d="M 90 464.8 
L 648 464.8 
" clip-path="url(#p6f26041b15)" style="fill: none; stroke: #b0b0b0; stroke-opacity: 0.15; stroke-width: 0.25; stroke-linecap: square"/>
     </g>
     <g id="line2d_92">
      <g>
       <use xlink:href="#ma197144b6f" x="90" y="464.8" style="stroke: #000000; stroke-width: 0.6"/>
      </g>
     </g>
    </g>
    <g id="ytick_11">
     <g id="line2d_93">
      <path d="M 90 435.466667 
L 648 435.466667 
" clip-path="url(#p6f26041b15)" style="fill: none; stroke: #b0b0b0; stroke-opacity: 0.15; stroke-width: 0.25; stroke-linecap: square"/>
     </g>
     <g id="line2d_94">
      <g>
       <use xlink:href="#ma197144b6f" x="90" y="435.466667" style="stroke: #000000; stroke-width: 0.6"/>
      </g>
     </g>
    </g>
    <g id="ytick_12">
     <g id="line2d_95">
      <path d="M 90 376.8 
L 648 376.8 
" clip-path="url(#p6f26041b15)" style="fill: none; stroke: #b0b0b0; stroke-opacity: 0.15; stroke-width: 0.25; stroke-linecap: square"/>
     </g>
     <g id="line2d_96">
      <g>
       <use xlink:href="#ma197144b6f" x="90" y="376.8" style="stroke: #000000; stroke-width: 0.6"/>
      </g>
     </g>
    </g>
    <g id="ytick_13">
     <g id="line2d_97">
      <path d="M 90 347.466667 
L 648 347.466667 
" clip-path="url(#p6f26041b15)" style="fill: none; stroke: #b0b0b0; stroke-opacity: 0.15; stroke-width: 0.25; stroke-linecap: square"/>
     </g>
     <g id="line2d_98">
      <g>
       <use xlink:href="#ma197144b6f" x="90" y="347.466667" style="stroke: #000000; stroke-width: 0.6"/>
      </g>
     </g>
    </g>
    <g id="ytick_14">
     <g id="line2d_99">
      <path d="M 90 318.133333 
L 648 318.133333 
" clip-path="url(#p6f26041b15)" style="fill: none; stroke: #b0b0b0; stroke-opacity: 0.15; stroke-width: 0.25; stroke-linecap: square"/>
     </g>
     <g id="line2d_100">
      <g>
       <use xlink:href="#ma197144b6f" x="90" y="318.133333" style="stroke: #000000; stroke-width: 0.6"/>
      </g>
     </g>
    </g>
    <g id="ytick_15">
     <g id="line2d_101">
      <path d="M 90 259.466667 
L 648 259.466667 
" clip-path="url(#p6f26041b15)" style="fill: none; stroke: #b0b0b0; stroke-opacity: 0.15; stroke-width: 0.25; stroke-linecap: square"/>
     </g>
     <g id="line2d_102">
      <g>
       <use xlink:href="#ma197144b6f" x="90" y="259.466667" style="stroke: #000000; stroke-width: 0.6"/>
      </g>
     </g>
    </g>
    <g id="ytick_16">
     <g id="line2d_103">
      <path d="M 90 230.133333 
L 648 230.133333 
" clip-path="url(#p6f26041b15)" style="fill: none; stroke: #b0b0b0; stroke-opacity: 0.15; stroke-width: 0.25; stroke-linecap: square"/>
     </g>
     <g id="line2d_104">
      <g>
       <use xlink:href="#ma197144b6f" x="90" y="230.133333" style="stroke: #000000; stroke-width: 0.6"/>
      </g>
     </g>
    </g>
    <g id="ytick_17">
     <g id="line2d_105">
      <path d="M 90 200.8 
L 648 200.8 
" clip-path="url(#p6f26041b15)" style="fill: none; stroke: #b0b0b0; stroke-opacity: 0.15; stroke-width: 0.25; stroke-linecap: square"/>
     </g>
     <g id="line2d_106">
      <g>
       <use xlink:href="#ma197144b6f" x="90" y="200.8" style="stroke: #000000; stroke-width: 0.6"/>
      </g>
     </g>
    </g>
    <g id="ytick_18">
     <g id="line2d_107">
      <path d="M 90 142.133333 
L 648 142.133333 
" clip-path="url(#p6f26041b15)" style="fill: none; stroke: #b0b0b0; stroke-opacity: 0.15; stroke-width: 0.25; stroke-linecap: square"/>
     </g>
     <g id="line2d_108">
      <g>
       <use xlink:href="#ma197144b6f" x="90" y="142.133333" style="stroke: #000000; stroke-width: 0.6"/>
      </g>
     </g>
    </g>
    <g id="ytick_19">
     <g id="line2d_109">
      <path d="M 90 112.8 
L 648 112.8 
" clip-path="url(#p6f26041b15)" style="fill: none; stroke: #b0b0b0; stroke-opacity: 0.15; stroke-width: 0.25; stroke-linecap: square"/>
     </g>
     <g id="line2d_110">
      <g>
       <use xlink:href="#ma197144b6f" x="90" y="112.8" style="stroke: #000000; stroke-width: 0.6"/>
      </g>
     </g>
    </g>
    <g id="text_14">
     <!-- Amount -->
     <g transform="translate(63.228125 399.609375) rotate(-90) scale(0.2 -0.2)">
      <defs>
       <path id="CourierNewPSMT-41" d="M 2784 1222 
L 1059 1222 
L 706 263 
L 1209 263 
Q 1303 263 1343 227 
Q 1384 191 1384 131 
Q 1384 75 1343 37 
Q 1303 0 1209 0 
L 228 0 
Q 134 0 93 37 
Q 53 75 53 131 
Q 53 191 93 227 
Q 134 263 228 263 
L 431 263 
L 1591 3394 
L 816 3394 
Q 722 3394 681 3430 
Q 641 3466 641 3525 
Q 641 3584 681 3620 
Q 722 3656 816 3656 
L 2138 3656 
L 3419 263 
L 3622 263 
Q 3716 263 3756 227 
Q 3797 191 3797 131 
Q 3797 75 3756 37 
Q 3716 0 3622 0 
L 2644 0 
Q 2547 0 2506 37 
Q 2466 75 2466 131 
Q 2466 191 2506 227 
Q 2547 263 2644 263 
L 3144 263 
L 2784 1222 
z
M 2684 1484 
L 1959 3394 
L 1863 3394 
L 1159 1484 
L 2684 1484 
z
" transform="scale(0.015625)"/>
       <path id="CourierNewPSMT-6d" d="M 725 2706 
L 725 2441 
Q 1059 2800 1397 2800 
Q 1600 2800 1753 2692 
Q 1906 2584 2009 2366 
Q 2184 2584 2364 2692 
Q 2544 2800 2725 2800 
Q 3009 2800 3178 2616 
Q 3400 2378 3400 2097 
L 3400 263 
L 3622 263 
Q 3716 263 3756 227 
Q 3797 191 3797 131 
Q 3797 75 3756 37 
Q 3716 0 3622 0 
L 3138 0 
L 3138 2072 
Q 3138 2272 3016 2403 
Q 2894 2534 2734 2534 
Q 2591 2534 2431 2426 
Q 2272 2319 2069 2003 
L 2069 263 
L 2288 263 
Q 2381 263 2422 227 
Q 2463 191 2463 131 
Q 2463 75 2422 37 
Q 2381 0 2288 0 
L 1803 0 
L 1803 2053 
Q 1803 2263 1679 2398 
Q 1556 2534 1403 2534 
Q 1263 2534 1125 2444 
Q 934 2316 725 2003 
L 725 263 
L 947 263 
Q 1041 263 1081 227 
Q 1122 191 1122 131 
Q 1122 75 1081 37 
Q 1041 0 947 0 
L 241 0 
Q 147 0 106 37 
Q 66 75 66 131 
Q 66 191 106 227 
Q 147 263 241 263 
L 463 263 
L 463 2441 
L 241 2441 
Q 147 2441 106 2478 
Q 66 2516 66 2575 
Q 66 2631 106 2668 
Q 147 2706 241 2706 
L 725 2706 
z
" transform="scale(0.015625)"/>
       <path id="CourierNewPSMT-6f" d="M 3388 1347 
Q 3388 747 2958 322 
Q 2528 -103 1922 -103 
Q 1309 -103 881 323 
Q 453 750 453 1347 
Q 453 1947 881 2373 
Q 1309 2800 1922 2800 
Q 2528 2800 2958 2375 
Q 3388 1950 3388 1347 
z
M 3122 1347 
Q 3122 1841 2770 2187 
Q 2419 2534 1919 2534 
Q 1419 2534 1067 2186 
Q 716 1838 716 1347 
Q 716 859 1067 509 
Q 1419 159 1919 159 
Q 2419 159 2770 507 
Q 3122 856 3122 1347 
z
" transform="scale(0.015625)"/>
       <path id="CourierNewPSMT-6e" d="M 1072 2706 
L 1072 2309 
Q 1347 2588 1569 2694 
Q 1791 2800 2069 2800 
Q 2369 2800 2616 2672 
Q 2791 2578 2933 2361 
Q 3075 2144 3075 1916 
L 3075 263 
L 3297 263 
Q 3391 263 3431 227 
Q 3472 191 3472 131 
Q 3472 75 3431 37 
Q 3391 0 3297 0 
L 2594 0 
Q 2497 0 2456 37 
Q 2416 75 2416 131 
Q 2416 191 2456 227 
Q 2497 263 2594 263 
L 2813 263 
L 2813 1872 
Q 2813 2150 2609 2342 
Q 2406 2534 2066 2534 
Q 1806 2534 1615 2429 
Q 1425 2325 1072 1909 
L 1072 263 
L 1369 263 
Q 1463 263 1503 227 
Q 1544 191 1544 131 
Q 1544 75 1503 37 
Q 1463 0 1369 0 
L 513 0 
Q 419 0 378 37 
Q 338 75 338 131 
Q 338 191 378 227 
Q 419 263 513 263 
L 809 263 
L 809 2441 
L 588 2441 
Q 494 2441 453 2478 
Q 413 2516 413 2575 
Q 413 2631 453 2668 
Q 494 2706 588 2706 
L 1072 2706 
z
" transform="scale(0.015625)"/>
      </defs>
      <use xlink:href="#CourierNewPSMT-41"/>
      <use xlink:href="#CourierNewPSMT-6d" transform="translate(60.009766 0)"/>
      <use xlink:href="#CourierNewPSMT-6f" transform="translate(120.019531 0)"/>
      <use xlink:href="#CourierNewPSMT-75" transform="translate(180.029297 0)"/>
      <use xlink:href="#CourierNewPSMT-6e" transform="translate(240.039062 0)"/>
      <use xlink:href="#CourierNewPSMT-74" transform="translate(300.048828 0)"/>
     </g>
    </g>
   </g>
   <g id="patch_3">
    <path d="M 115.363636 640.8 
L 120.436364 640.8 
L 120.436364 582.133333 
L 115.363636 582.133333 
z
" clip-path="url(#p6f26041b15)" style="fill: #1f77b4"/>
   </g>
   <g id="patch_4">
    <path d="M 120.436364 640.8 
L 125.509091 640.8 
L 125.509091 640.8 
L 120.436364 640.8 
z
" clip-path="url(#p6f26041b15)" style="fill: #1f77b4"/>
   </g>
   <g id="patch_5">
    <path d="M 125.509091 640.8 
L 130.581818 640.8 
L 130.581818 640.8 
L 125.509091 640.8 
z
" clip-path="url(#p6f26041b15)" style="fill: #1f77b4"/>
   </g>
   <g id="patch_6">
    <path d="M 130.581818 640.8 
L 135.654545 640.8 
L 135.654545 582.133333 
L 130.581818 582.133333 
z
" clip-path="url(#p6f26041b15)" style="fill: #1f77b4"/>
   </g>
   <g id="patch_7">
    <path d="M 135.654545 640.8 
L 140.727273 640.8 
L 140.727273 523.466667 
L 135.654545 523.466667 
z
" clip-path="url(#p6f26041b15)" style="fill: #1f77b4"/>
   </g>
   <g id="patch_8">
    <path d="M 140.727273 640.8 
L 145.8 640.8 
L 145.8 640.8 
L 140.727273 640.8 
z
" clip-path="url(#p6f26041b15)" style="fill: #1f77b4"/>
   </g>
   <g id="patch_9">
    <path d="M 145.8 640.8 
L 150.872727 640.8 
L 150.872727 640.8 
L 145.8 640.8 
z
" clip-path="url(#p6f26041b15)" style="fill: #1f77b4"/>
   </g>
   <g id="patch_10">
    <path d="M 150.872727 640.8 
L 155.945455 640.8 
L 155.945455 582.133333 
L 150.872727 582.133333 
z
" clip-path="url(#p6f26041b15)" style="fill: #1f77b4"/>
   </g>
   <g id="patch_11">
    <path d="M 155.945455 640.8 
L 161.018182 640.8 
L 161.018182 640.8 
L 155.945455 640.8 
z
" clip-path="url(#p6f26041b15)" style="fill: #1f77b4"/>
   </g>
   <g id="patch_12">
    <path d="M 161.018182 640.8 
L 166.090909 640.8 
L 166.090909 582.133333 
L 161.018182 582.133333 
z
" clip-path="url(#p6f26041b15)" style="fill: #1f77b4"/>
   </g>
   <g id="patch_13">
    <path d="M 166.090909 640.8 
L 171.163636 640.8 
L 171.163636 523.466667 
L 166.090909 523.466667 
z
" clip-path="url(#p6f26041b15)" style="fill: #1f77b4"/>
   </g>
   <g id="patch_14">
    <path d="M 171.163636 640.8 
L 176.236364 640.8 
L 176.236364 640.8 
L 171.163636 640.8 
z
" clip-path="url(#p6f26041b15)" style="fill: #1f77b4"/>
   </g>
   <g id="patch_15">
    <path d="M 176.236364 640.8 
L 181.309091 640.8 
L 181.309091 582.133333 
L 176.236364 582.133333 
z
" clip-path="url(#p6f26041b15)" style="fill: #1f77b4"/>
   </g>
   <g id="patch_16">
    <path d="M 181.309091 640.8 
L 186.381818 640.8 
L 186.381818 640.8 
L 181.309091 640.8 
z
" clip-path="url(#p6f26041b15)" style="fill: #1f77b4"/>
   </g>
   <g id="patch_17">
    <path d="M 186.381818 640.8 
L 191.454545 640.8 
L 191.454545 640.8 
L 186.381818 640.8 
z
" clip-path="url(#p6f26041b15)" style="fill: #1f77b4"/>
   </g>
   <g id="patch_18">
    <path d="M 191.454545 640.8 
L 196.527273 640.8 
L 196.527273 523.466667 
L 191.454545 523.466667 
z
" clip-path="url(#p6f26041b15)" style="fill: #1f77b4"/>
   </g>
   <g id="patch_19">
    <path d="M 196.527273 640.8 
L 201.6 640.8 
L 201.6 640.8 
L 196.527273 640.8 
z
" clip-path="url(#p6f26041b15)" style="fill: #1f77b4"/>
   </g>
   <g id="patch_20">
    <path d="M 201.6 640.8 
L 206.672727 640.8 
L 206.672727 582.133333 
L 201.6 582.133333 
z
" clip-path="url(#p6f26041b15)" style="fill: #1f77b4"/>
   </g>
   <g id="patch_21">
    <path d="M 206.672727 640.8 
L 211.745455 640.8 
L 211.745455 523.466667 
L 206.672727 523.466667 
z
" clip-path="url(#p6f26041b15)" style="fill: #1f77b4"/>
   </g>
   <g id="patch_22">
    <path d="M 211.745455 640.8 
L 216.818182 640.8 
L 216.818182 640.8 
L 211.745455 640.8 
z
" clip-path="url(#p6f26041b15)" style="fill: #1f77b4"/>
   </g>
   <g id="patch_23">
    <path d="M 216.818182 640.8 
L 221.890909 640.8 
L 221.890909 464.8 
L 216.818182 464.8 
z
" clip-path="url(#p6f26041b15)" style="fill: #1f77b4"/>
   </g>
   <g id="patch_24">
    <path d="M 221.890909 640.8 
L 226.963636 640.8 
L 226.963636 582.133333 
L 221.890909 582.133333 
z
" clip-path="url(#p6f26041b15)" style="fill: #1f77b4"/>
   </g>
   <g id="patch_25">
    <path d="M 226.963636 640.8 
L 232.036364 640.8 
L 232.036364 640.8 
L 226.963636 640.8 
z
" clip-path="url(#p6f26041b15)" style="fill: #1f77b4"/>
   </g>
   <g id="patch_26">
    <path d="M 232.036364 640.8 
L 237.109091 640.8 
L 237.109091 523.466667 
L 232.036364 523.466667 
z
" clip-path="url(#p6f26041b15)" style="fill: #1f77b4"/>
   </g>
   <g id="patch_27">
    <path d="M 237.109091 640.8 
L 242.181818 640.8 
L 242.181818 230.133333 
L 237.109091 230.133333 
z
" clip-path="url(#p6f26041b15)" style="fill: #1f77b4"/>
   </g>
   <g id="patch_28">
    <path d="M 242.181818 640.8 
L 247.254545 640.8 
L 247.254545 640.8 
L 242.181818 640.8 
z
" clip-path="url(#p6f26041b15)" style="fill: #1f77b4"/>
   </g>
   <g id="patch_29">
    <path d="M 247.254545 640.8 
L 252.327273 640.8 
L 252.327273 230.133333 
L 247.254545 230.133333 
z
" clip-path="url(#p6f26041b15)" style="fill: #1f77b4"/>
   </g>
   <g id="patch_30">
    <path d="M 252.327273 640.8 
L 257.4 640.8 
L 257.4 640.8 
L 252.327273 640.8 
z
" clip-path="url(#p6f26041b15)" style="fill: #1f77b4"/>
   </g>
   <g id="patch_31">
    <path d="M 257.4 640.8 
L 262.472727 640.8 
L 262.472727 464.8 
L 257.4 464.8 
z
" clip-path="url(#p6f26041b15)" style="fill: #1f77b4"/>
   </g>
   <g id="patch_32">
    <path d="M 262.472727 640.8 
L 267.545455 640.8 
L 267.545455 464.8 
L 262.472727 464.8 
z
" clip-path="url(#p6f26041b15)" style="fill: #1f77b4"/>
   </g>
   <g id="patch_33">
    <path d="M 267.545455 640.8 
L 272.618182 640.8 
L 272.618182 640.8 
L 267.545455 640.8 
z
" clip-path="url(#p6f26041b15)" style="fill: #1f77b4"/>
   </g>
   <g id="patch_34">
    <path d="M 272.618182 640.8 
L 277.690909 640.8 
L 277.690909 230.133333 
L 272.618182 230.133333 
z
" clip-path="url(#p6f26041b15)" style="fill: #1f77b4"/>
   </g>
   <g id="patch_35">
    <path d="M 277.690909 640.8 
L 282.763636 640.8 
L 282.763636 406.133333 
L 277.690909 406.133333 
z
" clip-path="url(#p6f26041b15)" style="fill: #1f77b4"/>
   </g>
   <g id="patch_36">
    <path d="M 282.763636 640.8 
L 287.836364 640.8 
L 287.836364 640.8 
L 282.763636 640.8 
z
" clip-path="url(#p6f26041b15)" style="fill: #1f77b4"/>
   </g>
   <g id="patch_37">
    <path d="M 287.836364 640.8 
L 292.909091 640.8 
L 292.909091 464.8 
L 287.836364 464.8 
z
" clip-path="url(#p6f26041b15)" style="fill: #1f77b4"/>
   </g>
   <g id="patch_38">
    <path d="M 292.909091 640.8 
L 297.981818 640.8 
L 297.981818 347.466667 
L 292.909091 347.466667 
z
" clip-path="url(#p6f26041b15)" style="fill: #1f77b4"/>
   </g>
   <g id="patch_39">
    <path d="M 297.981818 640.8 
L 303.054545 640.8 
L 303.054545 640.8 
L 297.981818 640.8 
z
" clip-path="url(#p6f26041b15)" style="fill: #1f77b4"/>
   </g>
   <g id="patch_40">
    <path d="M 303.054545 640.8 
L 308.127273 640.8 
L 308.127273 230.133333 
L 303.054545 230.133333 
z
" clip-path="url(#p6f26041b15)" style="fill: #1f77b4"/>
   </g>
   <g id="patch_41">
    <path d="M 308.127273 640.8 
L 313.2 640.8 
L 313.2 640.8 
L 308.127273 640.8 
z
" clip-path="url(#p6f26041b15)" style="fill: #1f77b4"/>
   </g>
   <g id="patch_42">
    <path d="M 313.2 640.8 
L 318.272727 640.8 
L 318.272727 230.133333 
L 313.2 230.133333 
z
" clip-path="url(#p6f26041b15)" style="fill: #1f77b4"/>
   </g>
   <g id="patch_43">
    <path d="M 318.272727 640.8 
L 323.345455 640.8 
L 323.345455 464.8 
L 318.272727 464.8 
z
" clip-path="url(#p6f26041b15)" style="fill: #1f77b4"/>
   </g>
   <g id="patch_44">
    <path d="M 323.345455 640.8 
L 328.418182 640.8 
L 328.418182 640.8 
L 323.345455 640.8 
z
" clip-path="url(#p6f26041b15)" style="fill: #1f77b4"/>
   </g>
   <g id="patch_45">
    <path d="M 328.418182 640.8 
L 333.490909 640.8 
L 333.490909 640.8 
L 328.418182 640.8 
z
" clip-path="url(#p6f26041b15)" style="fill: #1f77b4"/>
   </g>
   <g id="patch_46">
    <path d="M 333.490909 640.8 
L 338.563636 640.8 
L 338.563636 288.8 
L 333.490909 288.8 
z
" clip-path="url(#p6f26041b15)" style="fill: #1f77b4"/>
   </g>
   <g id="patch_47">
    <path d="M 338.563636 640.8 
L 343.636364 640.8 
L 343.636364 640.8 
L 338.563636 640.8 
z
" clip-path="url(#p6f26041b15)" style="fill: #1f77b4"/>
   </g>
   <g id="patch_48">
    <path d="M 343.636364 640.8 
L 348.709091 640.8 
L 348.709091 171.466667 
L 343.636364 171.466667 
z
" clip-path="url(#p6f26041b15)" style="fill: #1f77b4"/>
   </g>
   <g id="patch_49">
    <path d="M 348.709091 640.8 
L 353.781818 640.8 
L 353.781818 464.8 
L 348.709091 464.8 
z
" clip-path="url(#p6f26041b15)" style="fill: #1f77b4"/>
   </g>
   <g id="patch_50">
    <path d="M 353.781818 640.8 
L 358.854545 640.8 
L 358.854545 640.8 
L 353.781818 640.8 
z
" clip-path="url(#p6f26041b15)" style="fill: #1f77b4"/>
   </g>
   <g id="patch_51">
    <path d="M 358.854545 640.8 
L 363.927273 640.8 
L 363.927273 347.466667 
L 358.854545 347.466667 
z
" clip-path="url(#p6f26041b15)" style="fill: #1f77b4"/>
   </g>
   <g id="patch_52">
    <path d="M 363.927273 640.8 
L 369 640.8 
L 369 230.133333 
L 363.927273 230.133333 
z
" clip-path="url(#p6f26041b15)" style="fill: #1f77b4"/>
   </g>
   <g id="patch_53">
    <path d="M 369 640.8 
L 374.072727 640.8 
L 374.072727 640.8 
L 369 640.8 
z
" clip-path="url(#p6f26041b15)" style="fill: #1f77b4"/>
   </g>
   <g id="patch_54">
    <path d="M 374.072727 640.8 
L 379.145455 640.8 
L 379.145455 288.8 
L 374.072727 288.8 
z
" clip-path="url(#p6f26041b15)" style="fill: #1f77b4"/>
   </g>
   <g id="patch_55">
    <path d="M 379.145455 640.8 
L 384.218182 640.8 
L 384.218182 640.8 
L 379.145455 640.8 
z
" clip-path="url(#p6f26041b15)" style="fill: #1f77b4"/>
   </g>
   <g id="patch_56">
    <path d="M 384.218182 640.8 
L 389.290909 640.8 
L 389.290909 112.8 
L 384.218182 112.8 
z
" clip-path="url(#p6f26041b15)" style="fill: #1f77b4"/>
   </g>
   <g id="patch_57">
    <path d="M 389.290909 640.8 
L 394.363636 640.8 
L 394.363636 582.133333 
L 389.290909 582.133333 
z
" clip-path="url(#p6f26041b15)" style="fill: #1f77b4"/>
   </g>
   <g id="patch_58">
    <path d="M 394.363636 640.8 
L 399.436364 640.8 
L 399.436364 640.8 
L 394.363636 640.8 
z
" clip-path="url(#p6f26041b15)" style="fill: #1f77b4"/>
   </g>
   <g id="patch_59">
    <path d="M 399.436364 640.8 
L 404.509091 640.8 
L 404.509091 230.133333 
L 399.436364 230.133333 
z
" clip-path="url(#p6f26041b15)" style="fill: #1f77b4"/>
   </g>
   <g id="patch_60">
    <path d="M 404.509091 640.8 
L 409.581818 640.8 
L 409.581818 347.466667 
L 404.509091 347.466667 
z
" clip-path="url(#p6f26041b15)" style="fill: #1f77b4"/>
   </g>
   <g id="patch_61">
    <path d="M 409.581818 640.8 
L 414.654545 640.8 
L 414.654545 640.8 
L 409.581818 640.8 
z
" clip-path="url(#p6f26041b15)" style="fill: #1f77b4"/>
   </g>
   <g id="patch_62">
    <path d="M 414.654545 640.8 
L 419.727273 640.8 
L 419.727273 406.133333 
L 414.654545 406.133333 
z
" clip-path="url(#p6f26041b15)" style="fill: #1f77b4"/>
   </g>
   <g id="patch_63">
    <path d="M 419.727273 640.8 
L 424.8 640.8 
L 424.8 523.466667 
L 419.727273 523.466667 
z
" clip-path="url(#p6f26041b15)" style="fill: #1f77b4"/>
   </g>
   <g id="patch_64">
    <path d="M 424.8 640.8 
L 429.872727 640.8 
L 429.872727 640.8 
L 424.8 640.8 
z
" clip-path="url(#p6f26041b15)" style="fill: #1f77b4"/>
   </g>
   <g id="patch_65">
    <path d="M 429.872727 640.8 
L 434.945455 640.8 
L 434.945455 112.8 
L 429.872727 112.8 
z
" clip-path="url(#p6f26041b15)" style="fill: #1f77b4"/>
   </g>
   <g id="patch_66">
    <path d="M 434.945455 640.8 
L 440.018182 640.8 
L 440.018182 640.8 
L 434.945455 640.8 
z
" clip-path="url(#p6f26041b15)" style="fill: #1f77b4"/>
   </g>
   <g id="patch_67">
    <path d="M 440.018182 640.8 
L 445.090909 640.8 
L 445.090909 523.466667 
L 440.018182 523.466667 
z
" clip-path="url(#p6f26041b15)" style="fill: #1f77b4"/>
   </g>
   <g id="patch_68">
    <path d="M 445.090909 640.8 
L 450.163636 640.8 
L 450.163636 464.8 
L 445.090909 464.8 
z
" clip-path="url(#p6f26041b15)" style="fill: #1f77b4"/>
   </g>
   <g id="patch_69">
    <path d="M 450.163636 640.8 
L 455.236364 640.8 
L 455.236364 640.8 
L 450.163636 640.8 
z
" clip-path="url(#p6f26041b15)" style="fill: #1f77b4"/>
   </g>
   <g id="patch_70">
    <path d="M 455.236364 640.8 
L 460.309091 640.8 
L 460.309091 582.133333 
L 455.236364 582.133333 
z
" clip-path="url(#p6f26041b15)" style="fill: #1f77b4"/>
   </g>
   <g id="patch_71">
    <path d="M 460.309091 640.8 
L 465.381818 640.8 
L 465.381818 464.8 
L 460.309091 464.8 
z
" clip-path="url(#p6f26041b15)" style="fill: #1f77b4"/>
   </g>
   <g id="patch_72">
    <path d="M 465.381818 640.8 
L 470.454545 640.8 
L 470.454545 640.8 
L 465.381818 640.8 
z
" clip-path="url(#p6f26041b15)" style="fill: #1f77b4"/>
   </g>
   <g id="patch_73">
    <path d="M 470.454545 640.8 
L 475.527273 640.8 
L 475.527273 464.8 
L 470.454545 464.8 
z
" clip-path="url(#p6f26041b15)" style="fill: #1f77b4"/>
   </g>
   <g id="patch_74">
    <path d="M 475.527273 640.8 
L 480.6 640.8 
L 480.6 288.8 
L 475.527273 288.8 
z
" clip-path="url(#p6f26041b15)" style="fill: #1f77b4"/>
   </g>
   <g id="patch_75">
    <path d="M 480.6 640.8 
L 485.672727 640.8 
L 485.672727 640.8 
L 480.6 640.8 
z
" clip-path="url(#p6f26041b15)" style="fill: #1f77b4"/>
   </g>
   <g id="patch_76">
    <path d="M 485.672727 640.8 
L 490.745455 640.8 
L 490.745455 406.133333 
L 485.672727 406.133333 
z
" clip-path="url(#p6f26041b15)" style="fill: #1f77b4"/>
   </g>
   <g id="patch_77">
    <path d="M 490.745455 640.8 
L 495.818182 640.8 
L 495.818182 640.8 
L 490.745455 640.8 
z
" clip-path="url(#p6f26041b15)" style="fill: #1f77b4"/>
   </g>
   <g id="patch_78">
    <path d="M 495.818182 640.8 
L 500.890909 640.8 
L 500.890909 464.8 
L 495.818182 464.8 
z
" clip-path="url(#p6f26041b15)" style="fill: #1f77b4"/>
   </g>
   <g id="patch_79">
    <path d="M 500.890909 640.8 
L 505.963636 640.8 
L 505.963636 640.8 
L 500.890909 640.8 
z
" clip-path="url(#p6f26041b15)" style="fill: #1f77b4"/>
   </g>
   <g id="patch_80">
    <path d="M 505.963636 640.8 
L 511.036364 640.8 
L 511.036364 640.8 
L 505.963636 640.8 
z
" clip-path="url(#p6f26041b15)" style="fill: #1f77b4"/>
   </g>
   <g id="patch_81">
    <path d="M 511.036364 640.8 
L 516.109091 640.8 
L 516.109091 523.466667 
L 511.036364 523.466667 
z
" clip-path="url(#p6f26041b15)" style="fill: #1f77b4"/>
   </g>
   <g id="patch_82">
    <path d="M 516.109091 640.8 
L 521.181818 640.8 
L 521.181818 523.466667 
L 516.109091 523.466667 
z
" clip-path="url(#p6f26041b15)" style="fill: #1f77b4"/>
   </g>
   <g id="patch_83">
    <path d="M 521.181818 640.8 
L 526.254545 640.8 
L 526.254545 640.8 
L 521.181818 640.8 
z
" clip-path="url(#p6f26041b15)" style="fill: #1f77b4"/>
   </g>
   <g id="patch_84">
    <path d="M 526.254545 640.8 
L 531.327273 640.8 
L 531.327273 523.466667 
L 526.254545 523.466667 
z
" clip-path="url(#p6f26041b15)" style="fill: #1f77b4"/>
   </g>
   <g id="patch_85">
    <path d="M 531.327273 640.8 
L 536.4 640.8 
L 536.4 523.466667 
L 531.327273 523.466667 
z
" clip-path="url(#p6f26041b15)" style="fill: #1f77b4"/>
   </g>
   <g id="patch_86">
    <path d="M 536.4 640.8 
L 541.472727 640.8 
L 541.472727 640.8 
L 536.4 640.8 
z
" clip-path="url(#p6f26041b15)" style="fill: #1f77b4"/>
   </g>
   <g id="patch_87">
    <path d="M 541.472727 640.8 
L 546.545455 640.8 
L 546.545455 406.133333 
L 541.472727 406.133333 
z
" clip-path="url(#p6f26041b15)" style="fill: #1f77b4"/>
   </g>
   <g id="patch_88">
    <path d="M 546.545455 640.8 
L 551.618182 640.8 
L 551.618182 464.8 
L 546.545455 464.8 
z
" clip-path="url(#p6f26041b15)" style="fill: #1f77b4"/>
   </g>
   <g id="patch_89">
    <path d="M 551.618182 640.8 
L 556.690909 640.8 
L 556.690909 640.8 
L 551.618182 640.8 
z
" clip-path="url(#p6f26041b15)" style="fill: #1f77b4"/>
   </g>
   <g id="patch_90">
    <path d="M 556.690909 640.8 
L 561.763636 640.8 
L 561.763636 582.133333 
L 556.690909 582.133333 
z
" clip-path="url(#p6f26041b15)" style="fill: #1f77b4"/>
   </g>
   <g id="patch_91">
    <path d="M 561.763636 640.8 
L 566.836364 640.8 
L 566.836364 640.8 
L 561.763636 640.8 
z
" clip-path="url(#p6f26041b15)" style="fill: #1f77b4"/>
   </g>
   <g id="patch_92">
    <path d="M 566.836364 640.8 
L 571.909091 640.8 
L 571.909091 582.133333 
L 566.836364 582.133333 
z
" clip-path="url(#p6f26041b15)" style="fill: #1f77b4"/>
   </g>
   <g id="patch_93">
    <path d="M 571.909091 640.8 
L 576.981818 640.8 
L 576.981818 640.8 
L 571.909091 640.8 
z
" clip-path="url(#p6f26041b15)" style="fill: #1f77b4"/>
   </g>
   <g id="patch_94">
    <path d="M 576.981818 640.8 
L 582.054545 640.8 
L 582.054545 640.8 
L 576.981818 640.8 
z
" clip-path="url(#p6f26041b15)" style="fill: #1f77b4"/>
   </g>
   <g id="patch_95">
    <path d="M 582.054545 640.8 
L 587.127273 640.8 
L 587.127273 640.8 
L 582.054545 640.8 
z
" clip-path="url(#p6f26041b15)" style="fill: #1f77b4"/>
   </g>
   <g id="patch_96">
    <path d="M 587.127273 640.8 
L 592.2 640.8 
L 592.2 640.8 
L 587.127273 640.8 
z
" clip-path="url(#p6f26041b15)" style="fill: #1f77b4"/>
   </g>
   <g id="patch_97">
    <path d="M 592.2 640.8 
L 597.272727 640.8 
L 597.272727 640.8 
L 592.2 640.8 
z
" clip-path="url(#p6f26041b15)" style="fill: #1f77b4"/>
   </g>
   <g id="patch_98">
    <path d="M 597.272727 640.8 
L 602.345455 640.8 
L 602.345455 640.8 
L 597.272727 640.8 
z
" clip-path="url(#p6f26041b15)" style="fill: #1f77b4"/>
   </g>
   <g id="patch_99">
    <path d="M 602.345455 640.8 
L 607.418182 640.8 
L 607.418182 640.8 
L 602.345455 640.8 
z
" clip-path="url(#p6f26041b15)" style="fill: #1f77b4"/>
   </g>
   <g id="patch_100">
    <path d="M 607.418182 640.8 
L 612.490909 640.8 
L 612.490909 640.8 
L 607.418182 640.8 
z
" clip-path="url(#p6f26041b15)" style="fill: #1f77b4"/>
   </g>
   <g id="patch_101">
    <path d="M 612.490909 640.8 
L 617.563636 640.8 
L 617.563636 640.8 
L 612.490909 640.8 
z
" clip-path="url(#p6f26041b15)" style="fill: #1f77b4"/>
   </g>
   <g id="patch_102">
    <path d="M 617.563636 640.8 
L 622.636364 640.8 
L 622.636364 582.133333 
L 617.563636 582.133333 
z
" clip-path="url(#p6f26041b15)" style="fill: #1f77b4"/>
   </g>
   <g id="patch_103">
    <path d="M 90 640.8 
L 90 86.4 
" style="fill: none; stroke: #000000; stroke-width: 0.8; stroke-linejoin: miter; stroke-linecap: square"/>
   </g>
   <g id="patch_104">
    <path d="M 648 640.8 
L 648 86.4 
" style="fill: none; stroke: #000000; stroke-width: 0.8; stroke-linejoin: miter; stroke-linecap: square"/>
   </g>
   <g id="patch_105">
    <path d="M 90 640.8 
L 648 640.8 
" style="fill: none; stroke: #000000; stroke-width: 0.8; stroke-linejoin: miter; stroke-linecap: square"/>
   </g>
   <g id="patch_106">
    <path d="M 90 86.4 
L 648 86.4 
" style="fill: none; stroke: #000000; stroke-width: 0.8; stroke-linejoin: miter; stroke-linecap: square"/>
   </g>
   <g id="text_15">
    <!-- Difficulty Distribution -->
    <g transform="translate(230.964062 80.4) scale(0.2 -0.2)">
     <defs>
      <path id="CourierNewPSMT-20" transform="scale(0.015625)"/>
      <path id="CourierNewPSMT-73" d="M 2788 2534 
Q 2788 2625 2825 2665 
Q 2863 2706 2919 2706 
Q 2978 2706 3015 2665 
Q 3053 2625 3053 2528 
L 3053 2078 
Q 3053 1984 3015 1943 
Q 2978 1903 2919 1903 
Q 2866 1903 2830 1937 
Q 2794 1972 2788 2050 
Q 2769 2238 2594 2359 
Q 2338 2534 1916 2534 
Q 1475 2534 1231 2356 
Q 1047 2222 1047 2056 
Q 1047 1869 1266 1744 
Q 1416 1656 1834 1609 
Q 2381 1550 2594 1475 
Q 2897 1366 3045 1172 
Q 3194 978 3194 753 
Q 3194 419 2872 158 
Q 2550 -103 1928 -103 
Q 1306 -103 909 213 
Q 909 106 896 75 
Q 884 44 851 22 
Q 819 0 778 0 
Q 722 0 684 40 
Q 647 81 647 175 
L 647 716 
Q 647 809 683 850 
Q 719 891 778 891 
Q 834 891 873 852 
Q 913 813 913 747 
Q 913 603 984 506 
Q 1094 356 1333 257 
Q 1572 159 1919 159 
Q 2431 159 2681 350 
Q 2931 541 2931 753 
Q 2931 997 2678 1144 
Q 2422 1291 1933 1341 
Q 1444 1391 1231 1472 
Q 1019 1553 900 1715 
Q 781 1878 781 2066 
Q 781 2403 1112 2601 
Q 1444 2800 1903 2800 
Q 2447 2800 2788 2534 
z
" transform="scale(0.015625)"/>
      <path id="CourierNewPSMT-72" d="M 1606 2706 
L 1606 2044 
Q 2119 2506 2373 2639 
Q 2628 2772 2844 2772 
Q 3078 2772 3279 2614 
Q 3481 2456 3481 2375 
Q 3481 2316 3442 2277 
Q 3403 2238 3344 2238 
Q 3313 2238 3291 2248 
Q 3269 2259 3209 2319 
Q 3100 2428 3019 2468 
Q 2938 2509 2859 2509 
Q 2688 2509 2445 2371 
Q 2203 2234 1606 1700 
L 1606 263 
L 2769 263 
Q 2866 263 2906 227 
Q 2947 191 2947 131 
Q 2947 75 2906 37 
Q 2866 0 2769 0 
L 709 0 
Q 616 0 575 36 
Q 534 72 534 128 
Q 534 181 573 217 
Q 613 253 709 253 
L 1344 253 
L 1344 2441 
L 859 2441 
Q 766 2441 725 2478 
Q 684 2516 684 2575 
Q 684 2631 723 2668 
Q 763 2706 859 2706 
L 1606 2706 
z
" transform="scale(0.015625)"/>
      <path id="CourierNewPSMT-62" d="M 931 3922 
L 931 2181 
Q 1406 2800 2078 2800 
Q 2653 2800 3062 2383 
Q 3472 1966 3472 1359 
Q 3472 747 3058 322 
Q 2644 -103 2078 -103 
Q 1391 -103 931 516 
L 931 0 
L 316 0 
Q 222 0 181 37 
Q 141 75 141 131 
Q 141 191 181 227 
Q 222 263 316 263 
L 669 263 
L 669 3656 
L 316 3656 
Q 222 3656 181 3693 
Q 141 3731 141 3791 
Q 141 3847 181 3884 
Q 222 3922 316 3922 
L 931 3922 
z
M 3209 1347 
Q 3209 1844 2868 2189 
Q 2528 2534 2072 2534 
Q 1616 2534 1275 2189 
Q 934 1844 934 1347 
Q 934 850 1275 504 
Q 1616 159 2072 159 
Q 2528 159 2868 504 
Q 3209 850 3209 1347 
z
" transform="scale(0.015625)"/>
     </defs>
     <use xlink:href="#CourierNewPSMT-44"/>
     <use xlink:href="#CourierNewPSMT-69" transform="translate(60.009766 0)"/>
     <use xlink:href="#CourierNewPSMT-66" transform="translate(120.019531 0)"/>
     <use xlink:href="#CourierNewPSMT-66" transform="translate(180.029297 0)"/>
     <use xlink:href="#CourierNewPSMT-69" transform="translate(240.039062 0)"/>
     <use xlink:href="#CourierNewPSMT-63" transform="translate(300.048828 0)"/>
     <use xlink:href="#CourierNewPSMT-75" transform="translate(360.058594 0)"/>
     <use xlink:href="#CourierNewPSMT-6c" transform="translate(420.068359 0)"/>
     <use xlink:href="#CourierNewPSMT-74" transform="translate(480.078125 0)"/>
     <use xlink:href="#CourierNewPSMT-79" transform="translate(540.087891 0)"/>
     <use xlink:href="#CourierNewPSMT-20" transform="translate(600.097656 0)"/>
     <use xlink:href="#CourierNewPSMT-44" transform="translate(660.107422 0)"/>
     <use xlink:href="#CourierNewPSMT-69" transform="translate(720.117188 0)"/>
     <use xlink:href="#CourierNewPSMT-73" transform="translate(780.126953 0)"/>
     <use xlink:href="#CourierNewPSMT-74" transform="translate(840.136719 0)"/>
     <use xlink:href="#CourierNewPSMT-72" transform="translate(900.146484 0)"/>
     <use xlink:href="#CourierNewPSMT-69" transform="translate(960.15625 0)"/>
     <use xlink:href="#CourierNewPSMT-62" transform="translate(1020.166016 0)"/>
     <use xlink:href="#CourierNewPSMT-75" transform="translate(1080.175781 0)"/>
     <use xlink:href="#CourierNewPSMT-74" transform="translate(1140.185547 0)"/>
     <use xlink:href="#CourierNewPSMT-69" transform="translate(1200.195312 0)"/>
     <use xlink:href="#CourierNewPSMT-6f" transform="translate(1260.205078 0)"/>
     <use xlink:href="#CourierNewPSMT-6e" transform="translate(1320.214844 0)"/>
    </g>
   </g>
  </g>
 </g>
 <defs>
  <clipPath id="p6f26041b15">
   <rect x="90" y="86.4" width="558" height="554.4"/>
  </clipPath>
 </defs>
</svg>
